<svg width="40" height="40" viewBox="0 0 40 40" fill="none" xmlns="http://www.w3.org/2000/svg">
<path d="M22.5 19C22.8978 19 23.2794 18.842 23.5607 18.5607C23.842 18.2794 24 17.8978 24 17.5C24 17.1022 23.842 16.7206 23.5607 16.4393C23.2794 16.158 22.8978 16 22.5 16C22.1022 16 21.7206 16.158 21.4393 16.4393C21.158 16.7206 21 17.1022 21 17.5C21 17.8978 21.158 18.2794 21.4393 18.5607C21.7206 18.842 22.1022 19 22.5 19Z" fill="#82828B"/>
<path fill-rule="evenodd" clip-rule="evenodd" d="M19.018 13.5H20.982C21.795 13.5 22.451 13.5 22.982 13.543C23.528 13.588 24.008 13.683 24.452 13.909C25.1581 14.2684 25.7322 14.8421 26.092 15.548C26.318 15.992 26.412 16.472 26.457 17.018C26.5 17.549 26.5 18.205 26.5 19.018V20.982C26.5 21.795 26.5 22.451 26.457 22.982C26.412 23.528 26.317 24.008 26.091 24.452C25.7316 25.1581 25.1579 25.7322 24.452 26.092C24.008 26.318 23.528 26.412 22.982 26.457C22.451 26.5 21.795 26.5 20.982 26.5H19.018C18.205 26.5 17.549 26.5 17.018 26.457C16.472 26.412 15.992 26.317 15.548 26.091C14.8419 25.7316 14.2678 25.1579 13.908 24.452C13.682 24.008 13.588 23.528 13.543 22.982C13.5 22.451 13.5 21.795 13.5 20.982V19.018C13.5 18.205 13.5 17.549 13.543 17.018C13.588 16.472 13.683 15.992 13.909 15.548C14.2684 14.8419 14.8421 14.2678 15.548 13.908C15.992 13.682 16.472 13.588 17.018 13.543C17.549 13.5 18.205 13.5 19.018 13.5ZM17.141 15.038C16.687 15.075 16.426 15.145 16.229 15.245C15.8053 15.4608 15.4608 15.8053 15.245 16.229C15.145 16.426 15.075 16.687 15.038 17.141C15.001 17.603 15 18.198 15 19.05V20.478L15.723 19.611C15.8787 19.4242 16.0716 19.2718 16.2894 19.1637C16.5073 19.0556 16.7453 18.9941 16.9882 18.9831C17.2311 18.9721 17.4737 19.0118 17.7004 19.0998C17.9272 19.1878 18.1331 19.322 18.305 19.494L21 22.189L22.18 21.009C22.3541 20.835 22.5629 20.6997 22.7929 20.6119C23.0228 20.5241 23.2687 20.4858 23.5144 20.4995C23.7602 20.5132 24.0003 20.5785 24.219 20.6913C24.4378 20.8041 24.6303 20.9618 24.784 21.154L25 21.424V19.05C25 18.198 25 17.603 24.962 17.14C24.925 16.687 24.855 16.426 24.755 16.229C24.5392 15.8053 24.1947 15.4608 23.771 15.245C23.574 15.145 23.313 15.075 22.859 15.038C22.397 15.001 21.803 15 20.95 15H19.05C18.198 15 17.604 15 17.141 15.038ZM15.038 22.859C15.0358 22.8323 15.0338 22.8057 15.032 22.779C15.0474 22.7633 15.0621 22.747 15.076 22.73L16.876 20.571C16.8983 20.5445 16.9258 20.5229 16.9569 20.5076C16.988 20.4923 17.0219 20.4836 17.0565 20.4821C17.0911 20.4806 17.1256 20.4863 17.1579 20.4989C17.1902 20.5114 17.2195 20.5305 17.244 20.555L20.47 23.78C20.6106 23.9205 20.8012 23.9993 21 23.9993C21.1988 23.9993 21.3894 23.9205 21.53 23.78L23.24 22.07C23.2649 22.0452 23.2947 22.0258 23.3276 22.0133C23.3605 22.0008 23.3956 21.9954 23.4307 21.9973C23.4658 21.9993 23.5001 22.0087 23.5313 22.0248C23.5626 22.041 23.5901 22.0635 23.612 22.091L24.825 23.607C24.804 23.667 24.78 23.721 24.755 23.772C24.539 24.195 24.195 24.539 23.771 24.755C23.574 24.855 23.313 24.925 22.859 24.962C22.397 24.999 21.803 25 20.95 25H19.05C18.198 25 17.603 25 17.14 24.962C16.687 24.925 16.426 24.855 16.229 24.755C15.8053 24.5392 15.4608 24.1947 15.245 23.771C15.145 23.574 15.075 23.313 15.038 22.859Z" fill="#82828B"/>
</svg>
