<svg width="694" height="213" viewBox="0 0 694 213" fill="none" xmlns="http://www.w3.org/2000/svg">
<mask id="path-1-outside-1_1440_18638" maskUnits="userSpaceOnUse" x="0" y="0" width="694" height="214" fill="black">
<rect fill="white" width="694" height="214"/>
<path d="M99.9829 23.6684L100.617 23.8784C103.261 25.979 105.535 28.3596 107.439 31.0203C109.448 33.541 111.246 36.2717 112.833 39.2125C114.525 42.0132 115.847 45.094 116.799 48.4549C120.818 61.3383 117.328 75.7621 106.328 91.7263C101.675 98.4481 96.4399 104.19 90.6231 108.951C92.1038 110.351 93.4786 111.402 94.7478 112.102C96.1227 112.662 98.0263 113.852 100.459 115.673C102.891 117.353 104.478 120.644 105.218 125.545C105.958 130.306 105.747 135.698 104.583 141.719C103.526 147.741 101.516 153.973 98.5551 160.414C95.6996 166.716 91.9451 172.388 87.2917 177.429C76.7157 189.052 64.4475 193.953 50.4872 192.133C48.4778 192.133 47.2086 191.923 46.6798 191.503C46.151 191.083 45.728 190.732 45.4107 190.452C45.0934 190.172 44.406 189.962 43.3484 189.822C40.7044 192.623 37.6902 194.373 34.3059 195.074C30.9216 195.774 27.6959 195.424 24.6289 194.023C21.6676 192.623 19.1294 190.242 17.0142 186.881C15.0047 183.521 14 179.109 14 173.648C14.3173 170.007 14.8461 167.136 15.5864 165.036C15.2691 163.775 15.1105 162.235 15.1105 160.414C18.7063 135.068 22.0906 115.673 25.2634 102.229C31.7148 75.482 38.695 55.3167 46.2039 41.7331C52.338 30.2501 60.8517 22.8282 71.745 19.4673C82.2152 16.2464 91.6278 17.6468 99.9829 23.6684ZM50.6458 170.287C51.915 169.867 52.9726 169.797 53.8186 170.077C54.7705 170.217 55.881 170.147 57.1501 169.867C60.2171 169.447 64.3418 166.926 69.524 162.305C72.8026 157.964 74.5476 153.693 74.7591 149.492C74.9706 145.29 74.4947 142.63 73.3314 141.509C72.168 140.249 70.5816 139.619 68.5722 139.619C66.6685 139.619 64.5004 140.039 62.0679 140.879C59.7412 141.579 57.4674 142 55.2464 142.14V142.56C54.7176 145.36 54.1888 147.811 53.66 149.912C53.1312 152.012 52.6553 154.043 52.2322 156.003C51.2804 160.624 50.5401 165.386 50.0113 170.287H50.6458ZM80.1529 61.0582C76.9801 60.4981 73.5429 63.789 69.8413 70.9308C67.5146 75.412 65.7166 82.2038 64.4475 91.3062C66.6685 90.0459 68.8366 88.9956 70.9518 88.1554C73.1727 87.1751 75.235 86.1248 77.1387 85.0046C81.7922 82.3438 85.1236 79.123 87.133 75.342C89.4598 71.701 90.2001 68.6202 89.354 66.0996C88.0849 63.859 86.0226 61.8284 83.167 60.008C82.321 60.9882 81.3162 61.3383 80.1529 61.0582Z"/>
<path d="M142.809 42.9935C149.472 32.9108 156.876 26.6092 165.019 24.0885C170.624 22.268 175.912 22.5481 180.883 24.9287C184.796 19.4673 189.873 17.5068 196.113 19.0472C201.824 20.4475 206.689 24.7187 210.707 31.8605C210.919 32.8408 211.342 34.3112 211.977 36.2717C212.717 38.2322 213.404 40.4028 214.039 42.7834C218.692 57.0672 219.062 75.8321 215.149 99.0783C210.284 127.926 201.665 152.362 189.291 172.388C185.484 178.549 181.2 183.661 176.441 187.722C168.826 195.424 159.731 198.855 149.155 198.014C142.598 197.594 137.098 195.424 132.657 191.503C114.995 179.88 109.231 155.653 115.365 118.823C120.441 88.5755 129.589 63.2988 142.809 42.9935ZM144.713 154.533L144.555 155.793L144.872 158.104C145.506 162.445 146.564 165.806 148.045 168.186C149.525 170.427 150.741 171.827 151.693 172.388C152.751 171.267 153.809 170.217 154.866 169.237C155.924 168.256 156.876 167.066 157.722 165.666C164.913 153.903 170.519 138.499 174.537 119.454C178.556 100.409 180.037 82.764 178.979 66.5197C174.855 73.5215 170.519 81.5737 165.971 90.676C161.423 99.7784 157.827 107.55 155.183 113.992C149.155 128.976 145.665 142.49 144.713 154.533Z"/>
<path d="M266.179 73.4515L282.202 45.5141C281.039 41.173 281.462 36.6218 283.471 31.8605C289.817 23.4583 296.109 18.0669 302.349 15.6863C309.224 13.3057 315.305 13.4457 320.593 16.1064C323.237 17.5068 325.299 19.6773 326.78 22.6181C328.26 25.5589 328.525 29.4799 327.573 34.3812C325.035 41.6631 319.905 50.8355 312.185 61.8985C309.012 66.3796 305.839 70.7908 302.667 75.132C299.494 79.4731 296.691 83.5342 294.259 87.3152C291.932 91.0962 289.817 94.9472 287.913 98.8682C286.009 102.649 284 106.43 281.885 110.211C282.942 116.093 285.216 125.265 288.706 137.728C292.302 150.052 294.787 159.434 296.162 165.876C297.537 172.178 298.33 178.339 298.542 184.361C298.119 186.461 297.484 187.792 296.638 188.352C295.792 188.912 294.893 189.262 293.941 189.402C293.095 189.542 292.302 189.542 291.562 189.402C290.821 189.402 290.398 189.822 290.293 190.662C290.927 192.203 290.874 193.603 290.134 194.864C289.394 196.124 288.283 197.034 286.803 197.594C283.312 199.135 279.717 198.925 276.015 196.964C272.313 193.603 268.665 187.231 265.069 177.849C262.848 172.108 260.468 163.565 257.93 152.222C255.815 156.003 253.911 159.924 252.219 163.985C250.527 167.906 248.782 171.757 246.984 175.538C242.965 184.361 238.893 190.592 234.769 194.233C227.577 198.995 220.544 200.115 213.669 197.594C207.747 193.393 206.584 185.271 210.179 173.228C211.343 169.027 212.506 166.366 213.669 165.246C214.198 164.546 214.463 164.195 214.463 164.195C214.568 164.195 214.621 164.125 214.621 163.985C214.727 163.845 214.886 163.495 215.097 162.935C215.415 162.235 216.102 160.905 217.16 158.944C220.861 151.382 225.039 143.26 229.692 134.578L233.024 129.536C234.61 127.016 236.302 124.355 238.1 121.554C242.33 114.692 245.08 110.421 246.349 108.741C242.013 95.2973 239.369 86.1248 238.417 81.2236C236.937 72.5413 235.985 60.8482 235.562 46.1443C234.398 42.5033 235.456 38.0222 238.735 32.7008C241.696 27.9395 245.186 24.7887 249.205 23.2483C253.647 21.5678 256.555 23.2483 257.93 28.2896C259.94 35.7116 261.473 43.1335 262.531 50.5555C263.694 57.8374 264.91 65.4694 266.179 73.4515Z"/>
<path d="M348.134 136.258L340.52 161.885C339.462 165.806 338.51 169.867 337.664 174.068C336.818 178.269 335.919 181.91 334.967 184.991C334.015 188.212 332.535 190.732 330.525 192.553C328.622 194.373 326.453 195.704 324.021 196.544C321.588 197.524 319.05 197.944 316.406 197.804C313.868 197.664 311.594 197.034 309.585 195.914C305.037 193.113 303.451 188.492 304.826 182.05C309.69 153.763 314.238 131.077 318.469 113.992C322.805 96.9077 326.348 83.4641 329.097 73.6616C331.953 63.859 334.914 53.4962 337.981 42.5734C338.299 38.5123 339.568 34.8713 341.789 31.6505C344.01 28.4296 346.601 25.7689 349.562 23.6684C352.629 21.5678 355.802 20.0974 359.08 19.2572C362.359 18.277 365.267 18.1369 367.806 18.8371C370.344 19.5373 372.195 21.0777 373.358 23.4583C374.627 25.839 374.733 29.2699 373.675 33.751C369.868 46.6344 367.171 55.7368 365.585 61.0582C363.998 66.3796 362.57 71.1409 361.301 75.342L356.859 89.2057C359.08 89.3457 361.883 88.9256 365.267 87.9453C371.401 86.1248 375.843 85.4947 378.593 86.0548C378.593 85.3546 378.858 84.1643 379.386 82.4839C382.348 65.3994 385.679 49.7152 389.381 35.4315C392.025 23.6684 398.846 17.5068 409.845 16.9466C414.181 16.9466 417.46 18.347 419.681 21.1477C422.113 24.0885 422.431 28.0795 420.633 33.1209C410.903 69.2504 404.028 97.7479 400.01 118.613C395.462 142.7 392.448 158.944 390.967 167.346C389.592 175.748 388.376 180.72 387.318 182.26C386.261 183.801 385.15 184.851 383.987 185.411C382.929 186.111 381.872 186.741 380.814 187.302C379.757 187.862 378.91 189.262 378.276 191.503H377.8C376.954 194.023 375.103 195.984 372.248 197.384C369.392 198.785 366.484 199.275 363.522 198.855C360.667 198.574 358.234 197.174 356.225 194.653C354.321 192.273 353.845 188.562 354.797 183.521C355.855 175.538 357.6 166.996 360.032 157.894C362.465 148.651 364.368 141.439 365.743 136.258C367.224 131.077 368.44 126.245 369.392 121.764C368.546 122.324 367.7 122.744 366.854 123.025C366.113 123.305 365.162 123.865 363.998 124.705C362.835 125.405 361.619 126.035 360.35 126.596C359.186 127.156 358.023 127.716 356.859 128.276C353.898 129.816 351.466 131.357 349.562 132.897L348.134 136.258ZM366.061 122.184C366.166 122.184 366.695 121.974 367.647 121.554C367.012 121.834 366.484 122.044 366.061 122.184Z"/>
<path d="M440.921 155.583C447.055 156.423 451.603 156.843 454.564 156.843C457.631 156.843 462.232 156.283 468.366 155.163C470.27 156.003 471.38 157.054 471.697 158.314C472.015 159.574 472.121 160.905 472.015 162.305C471.909 163.565 471.962 164.826 472.173 166.086C472.385 167.346 473.39 168.397 475.188 169.237C476.139 169.657 476.404 170.917 475.981 173.018C475.663 174.978 474.817 177.149 473.443 179.529C469.952 185.551 465.828 189.752 461.069 192.133C453.454 194.653 447.478 196.124 443.142 196.544C435.951 197.244 428.124 196.894 419.664 195.494C410.357 193.253 405.862 188.142 406.179 180.16C406.179 150.752 411.044 121.204 420.774 91.5163C423.947 81.8537 427.543 71.701 431.562 61.0582C432.408 58.8176 432.884 56.297 432.989 53.4962C433.201 50.6955 433.359 47.9648 433.465 45.3041C433.571 42.6434 433.888 40.2628 434.417 38.1622C434.946 36.0616 436.056 34.5913 437.749 33.751C459.747 22.128 477.144 17.6468 489.941 20.3075C494.383 20.4475 497.291 22.4781 498.666 26.3991C500.147 30.1801 500.306 34.4512 499.142 39.2125C498.085 43.9737 495.916 48.4549 492.638 52.656C489.465 56.8571 485.446 59.4478 480.581 60.4281C474.341 62.8087 470.534 64.4191 469.159 65.2593C466.515 66.9398 464.612 69.1804 463.448 71.9811C461.968 75.0619 460.593 78.0027 459.324 80.8034C458.054 83.6042 457.155 86.615 456.627 89.8358L455.992 94.457C458.002 95.7174 460.434 96.1375 463.29 95.7174C466.251 95.1572 468.948 94.6671 471.38 94.247C473.918 93.6868 475.928 93.6168 477.408 94.0369C478.995 94.457 479.312 96.5576 478.36 100.339C477.514 103.98 475.875 108.111 473.443 112.732C471.116 117.353 467.784 120.714 463.448 122.815C460.698 123.515 458.795 124.075 457.737 124.495C456.785 124.775 456.045 124.985 455.516 125.125C454.776 125.265 452.661 125.475 449.171 125.755C444.2 136.958 441.186 145.641 440.128 151.802C439.705 154.323 439.969 155.583 440.921 155.583Z"/>
<path d="M577.576 39.6326C581.172 42.1533 583.446 45.8642 584.398 50.7655C582.282 66.4497 580.379 82.0638 578.687 97.6079C576.994 113.012 575.355 125.965 573.769 136.468C572.182 146.831 571.072 154.603 570.437 159.784C569.908 164.966 569.274 170.147 568.534 175.328L567.582 179.74C567.37 181.28 567.159 182.68 566.947 183.941C566.736 185.341 566.524 186.811 566.313 188.352C563.351 192.833 559.332 195.074 554.256 195.074C548.862 195.074 544.579 193.253 541.406 189.612C539.502 187.652 539.185 183.521 540.454 177.219C540.983 174.698 541.3 171.477 541.406 167.556C541.618 163.495 541.829 160.134 542.041 157.474V157.054C538.868 158.594 536.012 160.624 533.474 163.145C530.936 165.526 529.349 167.066 528.715 167.766C528.08 168.327 527.234 168.817 526.177 169.237C525.119 169.517 524.167 169.727 523.321 169.867C521.312 170.007 519.937 170.427 519.197 171.127C513.062 185.691 507.563 193.813 502.698 195.494C499.631 196.754 496.564 197.034 493.497 196.334C490.43 195.774 487.997 193.393 486.199 189.192C482.815 184.991 483.661 173.508 488.738 154.743C491.487 144.8 495.401 132.897 500.477 119.034C505.659 105.03 510.63 92.8466 515.389 82.4839C525.648 60.218 536.911 41.4531 549.179 26.189C551.189 25.0687 553.357 23.8084 555.684 22.408C558.01 20.8676 560.284 20.0274 562.505 19.8874C564.832 19.7473 567.212 20.0974 569.644 20.9377C572.077 21.7779 574.139 23.0382 575.831 24.7187C579.744 28.6397 580.326 33.611 577.576 39.6326ZM543.627 94.8772C541.406 103.279 539.185 111.051 536.964 118.193C534.743 125.195 532.84 131.357 531.253 136.678L543.786 136.048C544.632 127.086 545.584 118.193 546.641 109.371C547.699 100.549 548.704 91.7263 549.655 82.904L543.627 94.8772ZM539.344 136.888C540.824 136.888 542.305 136.748 543.786 136.468V136.258C542.411 136.398 541.142 136.538 539.978 136.678C538.815 136.818 538.603 136.888 539.344 136.888Z"/>
<path d="M679.653 96.7677C679.23 102.789 678.384 108.951 677.115 115.253C675.952 121.554 674.207 127.716 671.88 133.737C669.659 139.759 666.962 145.571 663.789 151.172C660.722 156.773 657.285 161.955 653.478 166.716C649.67 171.477 645.599 175.468 641.263 178.689C631.956 185.971 622.966 188.562 614.294 186.461C612.39 191.923 609.535 195.354 605.727 196.754C602.026 198.294 598.324 198.294 594.622 196.754C591.027 195.354 587.854 192.623 585.104 188.562C582.354 184.501 580.979 178.969 580.979 171.967C580.979 164.826 581.349 157.544 582.09 150.122C582.83 142.7 583.835 135.558 585.104 128.696C587.113 117.353 589.599 106.71 592.56 96.7677C599.54 74.2217 603.506 58.3975 604.458 49.2951C605.833 37.1119 608.371 29.5499 612.073 26.6092C618.207 21.8479 624.024 19.8174 629.523 20.5175C635.023 21.2177 639.993 22.9682 644.435 25.7689C651.733 30.3902 659.612 38.1622 668.073 49.0851C677.38 60.9882 681.24 76.8824 679.653 96.7677ZM617.308 159.784C622.702 156.143 627.038 152.432 630.316 148.651C633.701 144.73 636.874 141.159 639.835 137.939C644.382 131.917 647.714 124.775 649.829 116.513C654.483 98.3081 651.521 84.5144 640.945 75.132C639.359 73.5915 636.979 71.491 633.807 68.8303C632.326 73.3115 631.215 78.0027 630.475 82.904C629.84 87.8053 628.942 92.5665 627.778 97.1878L623.495 115.673L620.005 135.628C619.793 138.429 619.476 141.159 619.053 143.82C618.63 146.341 618.26 149.001 617.942 151.802L617.308 159.784Z"/>
</mask>
<path d="M99.9829 23.6684L100.617 23.8784C103.261 25.979 105.535 28.3596 107.439 31.0203C109.448 33.541 111.246 36.2717 112.833 39.2125C114.525 42.0132 115.847 45.094 116.799 48.4549C120.818 61.3383 117.328 75.7621 106.328 91.7263C101.675 98.4481 96.4399 104.19 90.6231 108.951C92.1038 110.351 93.4786 111.402 94.7478 112.102C96.1227 112.662 98.0263 113.852 100.459 115.673C102.891 117.353 104.478 120.644 105.218 125.545C105.958 130.306 105.747 135.698 104.583 141.719C103.526 147.741 101.516 153.973 98.5551 160.414C95.6996 166.716 91.9451 172.388 87.2917 177.429C76.7157 189.052 64.4475 193.953 50.4872 192.133C48.4778 192.133 47.2086 191.923 46.6798 191.503C46.151 191.083 45.728 190.732 45.4107 190.452C45.0934 190.172 44.406 189.962 43.3484 189.822C40.7044 192.623 37.6902 194.373 34.3059 195.074C30.9216 195.774 27.6959 195.424 24.6289 194.023C21.6676 192.623 19.1294 190.242 17.0142 186.881C15.0047 183.521 14 179.109 14 173.648C14.3173 170.007 14.8461 167.136 15.5864 165.036C15.2691 163.775 15.1105 162.235 15.1105 160.414C18.7063 135.068 22.0906 115.673 25.2634 102.229C31.7148 75.482 38.695 55.3167 46.2039 41.7331C52.338 30.2501 60.8517 22.8282 71.745 19.4673C82.2152 16.2464 91.6278 17.6468 99.9829 23.6684ZM50.6458 170.287C51.915 169.867 52.9726 169.797 53.8186 170.077C54.7705 170.217 55.881 170.147 57.1501 169.867C60.2171 169.447 64.3418 166.926 69.524 162.305C72.8026 157.964 74.5476 153.693 74.7591 149.492C74.9706 145.29 74.4947 142.63 73.3314 141.509C72.168 140.249 70.5816 139.619 68.5722 139.619C66.6685 139.619 64.5004 140.039 62.0679 140.879C59.7412 141.579 57.4674 142 55.2464 142.14V142.56C54.7176 145.36 54.1888 147.811 53.66 149.912C53.1312 152.012 52.6553 154.043 52.2322 156.003C51.2804 160.624 50.5401 165.386 50.0113 170.287H50.6458ZM80.1529 61.0582C76.9801 60.4981 73.5429 63.789 69.8413 70.9308C67.5146 75.412 65.7166 82.2038 64.4475 91.3062C66.6685 90.0459 68.8366 88.9956 70.9518 88.1554C73.1727 87.1751 75.235 86.1248 77.1387 85.0046C81.7922 82.3438 85.1236 79.123 87.133 75.342C89.4598 71.701 90.2001 68.6202 89.354 66.0996C88.0849 63.859 86.0226 61.8284 83.167 60.008C82.321 60.9882 81.3162 61.3383 80.1529 61.0582Z" fill="url(#paint0_linear_1440_18638)"/>
<path d="M142.809 42.9935C149.472 32.9108 156.876 26.6092 165.019 24.0885C170.624 22.268 175.912 22.5481 180.883 24.9287C184.796 19.4673 189.873 17.5068 196.113 19.0472C201.824 20.4475 206.689 24.7187 210.707 31.8605C210.919 32.8408 211.342 34.3112 211.977 36.2717C212.717 38.2322 213.404 40.4028 214.039 42.7834C218.692 57.0672 219.062 75.8321 215.149 99.0783C210.284 127.926 201.665 152.362 189.291 172.388C185.484 178.549 181.2 183.661 176.441 187.722C168.826 195.424 159.731 198.855 149.155 198.014C142.598 197.594 137.098 195.424 132.657 191.503C114.995 179.88 109.231 155.653 115.365 118.823C120.441 88.5755 129.589 63.2988 142.809 42.9935ZM144.713 154.533L144.555 155.793L144.872 158.104C145.506 162.445 146.564 165.806 148.045 168.186C149.525 170.427 150.741 171.827 151.693 172.388C152.751 171.267 153.809 170.217 154.866 169.237C155.924 168.256 156.876 167.066 157.722 165.666C164.913 153.903 170.519 138.499 174.537 119.454C178.556 100.409 180.037 82.764 178.979 66.5197C174.855 73.5215 170.519 81.5737 165.971 90.676C161.423 99.7784 157.827 107.55 155.183 113.992C149.155 128.976 145.665 142.49 144.713 154.533Z" fill="url(#paint1_linear_1440_18638)"/>
<path d="M266.179 73.4515L282.202 45.5141C281.039 41.173 281.462 36.6218 283.471 31.8605C289.817 23.4583 296.109 18.0669 302.349 15.6863C309.224 13.3057 315.305 13.4457 320.593 16.1064C323.237 17.5068 325.299 19.6773 326.78 22.6181C328.26 25.5589 328.525 29.4799 327.573 34.3812C325.035 41.6631 319.905 50.8355 312.185 61.8985C309.012 66.3796 305.839 70.7908 302.667 75.132C299.494 79.4731 296.691 83.5342 294.259 87.3152C291.932 91.0962 289.817 94.9472 287.913 98.8682C286.009 102.649 284 106.43 281.885 110.211C282.942 116.093 285.216 125.265 288.706 137.728C292.302 150.052 294.787 159.434 296.162 165.876C297.537 172.178 298.33 178.339 298.542 184.361C298.119 186.461 297.484 187.792 296.638 188.352C295.792 188.912 294.893 189.262 293.941 189.402C293.095 189.542 292.302 189.542 291.562 189.402C290.821 189.402 290.398 189.822 290.293 190.662C290.927 192.203 290.874 193.603 290.134 194.864C289.394 196.124 288.283 197.034 286.803 197.594C283.312 199.135 279.717 198.925 276.015 196.964C272.313 193.603 268.665 187.231 265.069 177.849C262.848 172.108 260.468 163.565 257.93 152.222C255.815 156.003 253.911 159.924 252.219 163.985C250.527 167.906 248.782 171.757 246.984 175.538C242.965 184.361 238.893 190.592 234.769 194.233C227.577 198.995 220.544 200.115 213.669 197.594C207.747 193.393 206.584 185.271 210.179 173.228C211.343 169.027 212.506 166.366 213.669 165.246C214.198 164.546 214.463 164.195 214.463 164.195C214.568 164.195 214.621 164.125 214.621 163.985C214.727 163.845 214.886 163.495 215.097 162.935C215.415 162.235 216.102 160.905 217.16 158.944C220.861 151.382 225.039 143.26 229.692 134.578L233.024 129.536C234.61 127.016 236.302 124.355 238.1 121.554C242.33 114.692 245.08 110.421 246.349 108.741C242.013 95.2973 239.369 86.1248 238.417 81.2236C236.937 72.5413 235.985 60.8482 235.562 46.1443C234.398 42.5033 235.456 38.0222 238.735 32.7008C241.696 27.9395 245.186 24.7887 249.205 23.2483C253.647 21.5678 256.555 23.2483 257.93 28.2896C259.94 35.7116 261.473 43.1335 262.531 50.5555C263.694 57.8374 264.91 65.4694 266.179 73.4515Z" fill="url(#paint2_linear_1440_18638)"/>
<path d="M348.134 136.258L340.52 161.885C339.462 165.806 338.51 169.867 337.664 174.068C336.818 178.269 335.919 181.91 334.967 184.991C334.015 188.212 332.535 190.732 330.525 192.553C328.622 194.373 326.453 195.704 324.021 196.544C321.588 197.524 319.05 197.944 316.406 197.804C313.868 197.664 311.594 197.034 309.585 195.914C305.037 193.113 303.451 188.492 304.826 182.05C309.69 153.763 314.238 131.077 318.469 113.992C322.805 96.9077 326.348 83.4641 329.097 73.6616C331.953 63.859 334.914 53.4962 337.981 42.5734C338.299 38.5123 339.568 34.8713 341.789 31.6505C344.01 28.4296 346.601 25.7689 349.562 23.6684C352.629 21.5678 355.802 20.0974 359.08 19.2572C362.359 18.277 365.267 18.1369 367.806 18.8371C370.344 19.5373 372.195 21.0777 373.358 23.4583C374.627 25.839 374.733 29.2699 373.675 33.751C369.868 46.6344 367.171 55.7368 365.585 61.0582C363.998 66.3796 362.57 71.1409 361.301 75.342L356.859 89.2057C359.08 89.3457 361.883 88.9256 365.267 87.9453C371.401 86.1248 375.843 85.4947 378.593 86.0548C378.593 85.3546 378.858 84.1643 379.386 82.4839C382.348 65.3994 385.679 49.7152 389.381 35.4315C392.025 23.6684 398.846 17.5068 409.845 16.9466C414.181 16.9466 417.46 18.347 419.681 21.1477C422.113 24.0885 422.431 28.0795 420.633 33.1209C410.903 69.2504 404.028 97.7479 400.01 118.613C395.462 142.7 392.448 158.944 390.967 167.346C389.592 175.748 388.376 180.72 387.318 182.26C386.261 183.801 385.15 184.851 383.987 185.411C382.929 186.111 381.872 186.741 380.814 187.302C379.757 187.862 378.91 189.262 378.276 191.503H377.8C376.954 194.023 375.103 195.984 372.248 197.384C369.392 198.785 366.484 199.275 363.522 198.855C360.667 198.574 358.234 197.174 356.225 194.653C354.321 192.273 353.845 188.562 354.797 183.521C355.855 175.538 357.6 166.996 360.032 157.894C362.465 148.651 364.368 141.439 365.743 136.258C367.224 131.077 368.44 126.245 369.392 121.764C368.546 122.324 367.7 122.744 366.854 123.025C366.113 123.305 365.162 123.865 363.998 124.705C362.835 125.405 361.619 126.035 360.35 126.596C359.186 127.156 358.023 127.716 356.859 128.276C353.898 129.816 351.466 131.357 349.562 132.897L348.134 136.258ZM366.061 122.184C366.166 122.184 366.695 121.974 367.647 121.554C367.012 121.834 366.484 122.044 366.061 122.184Z" fill="url(#paint3_linear_1440_18638)"/>
<path d="M440.921 155.583C447.055 156.423 451.603 156.843 454.564 156.843C457.631 156.843 462.232 156.283 468.366 155.163C470.27 156.003 471.38 157.054 471.697 158.314C472.015 159.574 472.121 160.905 472.015 162.305C471.909 163.565 471.962 164.826 472.173 166.086C472.385 167.346 473.39 168.397 475.188 169.237C476.139 169.657 476.404 170.917 475.981 173.018C475.663 174.978 474.817 177.149 473.443 179.529C469.952 185.551 465.828 189.752 461.069 192.133C453.454 194.653 447.478 196.124 443.142 196.544C435.951 197.244 428.124 196.894 419.664 195.494C410.357 193.253 405.862 188.142 406.179 180.16C406.179 150.752 411.044 121.204 420.774 91.5163C423.947 81.8537 427.543 71.701 431.562 61.0582C432.408 58.8176 432.884 56.297 432.989 53.4962C433.201 50.6955 433.359 47.9648 433.465 45.3041C433.571 42.6434 433.888 40.2628 434.417 38.1622C434.946 36.0616 436.056 34.5913 437.749 33.751C459.747 22.128 477.144 17.6468 489.941 20.3075C494.383 20.4475 497.291 22.4781 498.666 26.3991C500.147 30.1801 500.306 34.4512 499.142 39.2125C498.085 43.9737 495.916 48.4549 492.638 52.656C489.465 56.8571 485.446 59.4478 480.581 60.4281C474.341 62.8087 470.534 64.4191 469.159 65.2593C466.515 66.9398 464.612 69.1804 463.448 71.9811C461.968 75.0619 460.593 78.0027 459.324 80.8034C458.054 83.6042 457.155 86.615 456.627 89.8358L455.992 94.457C458.002 95.7174 460.434 96.1375 463.29 95.7174C466.251 95.1572 468.948 94.6671 471.38 94.247C473.918 93.6868 475.928 93.6168 477.408 94.0369C478.995 94.457 479.312 96.5576 478.36 100.339C477.514 103.98 475.875 108.111 473.443 112.732C471.116 117.353 467.784 120.714 463.448 122.815C460.698 123.515 458.795 124.075 457.737 124.495C456.785 124.775 456.045 124.985 455.516 125.125C454.776 125.265 452.661 125.475 449.171 125.755C444.2 136.958 441.186 145.641 440.128 151.802C439.705 154.323 439.969 155.583 440.921 155.583Z" fill="url(#paint4_linear_1440_18638)"/>
<path d="M577.576 39.6326C581.172 42.1533 583.446 45.8642 584.398 50.7655C582.282 66.4497 580.379 82.0638 578.687 97.6079C576.994 113.012 575.355 125.965 573.769 136.468C572.182 146.831 571.072 154.603 570.437 159.784C569.908 164.966 569.274 170.147 568.534 175.328L567.582 179.74C567.37 181.28 567.159 182.68 566.947 183.941C566.736 185.341 566.524 186.811 566.313 188.352C563.351 192.833 559.332 195.074 554.256 195.074C548.862 195.074 544.579 193.253 541.406 189.612C539.502 187.652 539.185 183.521 540.454 177.219C540.983 174.698 541.3 171.477 541.406 167.556C541.618 163.495 541.829 160.134 542.041 157.474V157.054C538.868 158.594 536.012 160.624 533.474 163.145C530.936 165.526 529.349 167.066 528.715 167.766C528.08 168.327 527.234 168.817 526.177 169.237C525.119 169.517 524.167 169.727 523.321 169.867C521.312 170.007 519.937 170.427 519.197 171.127C513.062 185.691 507.563 193.813 502.698 195.494C499.631 196.754 496.564 197.034 493.497 196.334C490.43 195.774 487.997 193.393 486.199 189.192C482.815 184.991 483.661 173.508 488.738 154.743C491.487 144.8 495.401 132.897 500.477 119.034C505.659 105.03 510.63 92.8466 515.389 82.4839C525.648 60.218 536.911 41.4531 549.179 26.189C551.189 25.0687 553.357 23.8084 555.684 22.408C558.01 20.8676 560.284 20.0274 562.505 19.8874C564.832 19.7473 567.212 20.0974 569.644 20.9377C572.077 21.7779 574.139 23.0382 575.831 24.7187C579.744 28.6397 580.326 33.611 577.576 39.6326ZM543.627 94.8772C541.406 103.279 539.185 111.051 536.964 118.193C534.743 125.195 532.84 131.357 531.253 136.678L543.786 136.048C544.632 127.086 545.584 118.193 546.641 109.371C547.699 100.549 548.704 91.7263 549.655 82.904L543.627 94.8772ZM539.344 136.888C540.824 136.888 542.305 136.748 543.786 136.468V136.258C542.411 136.398 541.142 136.538 539.978 136.678C538.815 136.818 538.603 136.888 539.344 136.888Z" fill="url(#paint5_linear_1440_18638)"/>
<path d="M679.653 96.7677C679.23 102.789 678.384 108.951 677.115 115.253C675.952 121.554 674.207 127.716 671.88 133.737C669.659 139.759 666.962 145.571 663.789 151.172C660.722 156.773 657.285 161.955 653.478 166.716C649.67 171.477 645.599 175.468 641.263 178.689C631.956 185.971 622.966 188.562 614.294 186.461C612.39 191.923 609.535 195.354 605.727 196.754C602.026 198.294 598.324 198.294 594.622 196.754C591.027 195.354 587.854 192.623 585.104 188.562C582.354 184.501 580.979 178.969 580.979 171.967C580.979 164.826 581.349 157.544 582.09 150.122C582.83 142.7 583.835 135.558 585.104 128.696C587.113 117.353 589.599 106.71 592.56 96.7677C599.54 74.2217 603.506 58.3975 604.458 49.2951C605.833 37.1119 608.371 29.5499 612.073 26.6092C618.207 21.8479 624.024 19.8174 629.523 20.5175C635.023 21.2177 639.993 22.9682 644.435 25.7689C651.733 30.3902 659.612 38.1622 668.073 49.0851C677.38 60.9882 681.24 76.8824 679.653 96.7677ZM617.308 159.784C622.702 156.143 627.038 152.432 630.316 148.651C633.701 144.73 636.874 141.159 639.835 137.939C644.382 131.917 647.714 124.775 649.829 116.513C654.483 98.3081 651.521 84.5144 640.945 75.132C639.359 73.5915 636.979 71.491 633.807 68.8303C632.326 73.3115 631.215 78.0027 630.475 82.904C629.84 87.8053 628.942 92.5665 627.778 97.1878L623.495 115.673L620.005 135.628C619.793 138.429 619.476 141.159 619.053 143.82C618.63 146.341 618.26 149.001 617.942 151.802L617.308 159.784Z" fill="url(#paint6_linear_1440_18638)"/>
<path d="M77.7733 67.218H78.2492V53.218H77.7733V67.218ZM99.9829 23.6684L91.7973 35.026L93.5418 36.2834L95.5834 36.9591L99.9829 23.6684ZM100.617 23.8784L109.326 12.9167L107.378 11.3694L105.017 10.5877L100.617 23.8784ZM107.439 31.0203L96.0531 39.1667L96.2649 39.4627L96.4918 39.7473L107.439 31.0203ZM112.833 39.2125L100.511 45.8593L100.673 46.1599L100.85 46.4522L112.833 39.2125ZM116.799 48.4549L103.329 52.2698L103.379 52.4476L103.434 52.624L116.799 48.4549ZM106.328 91.7263L117.839 99.6952L117.848 99.6822L117.857 99.6693L106.328 91.7263ZM90.6231 108.951L81.7555 98.1173L69.4468 108.192L81.0032 119.122L90.6231 108.951ZM94.7478 112.102L87.9848 124.36L88.7044 124.757L89.4655 125.067L94.7478 112.102ZM100.459 115.673L92.0702 126.881L92.2828 127.04L92.5013 127.191L100.459 115.673ZM105.218 125.545L91.375 127.636L91.3796 127.666L91.3842 127.696L105.218 125.545ZM104.583 141.719L90.8376 139.064L90.8151 139.181L90.7945 139.298L104.583 141.719ZM98.5551 160.414L85.8348 154.567L85.8189 154.601L85.8032 154.636L98.5551 160.414ZM87.2917 177.429L77.0043 167.933L76.9704 167.97L76.9368 168.007L87.2917 177.429ZM50.4872 192.133L52.2975 178.25L51.3962 178.133H50.4872V192.133ZM46.6798 191.503L37.9712 202.464L37.9712 202.464L46.6798 191.503ZM45.4107 190.452L54.6757 179.957L54.6757 179.957L45.4107 190.452ZM43.3484 189.822L45.1861 175.943L38.0852 175.003L33.1681 180.212L43.3484 189.822ZM24.6289 194.023L18.6438 206.679L18.7287 206.72L18.8141 206.759L24.6289 194.023ZM17.0142 186.881L4.99809 194.066L5.08021 194.203L5.16545 194.338L17.0142 186.881ZM14 173.648L0.0528551 172.433L0 173.039V173.648H14ZM15.5864 165.036L28.7903 169.689L30.1929 165.71L29.1628 161.618L15.5864 165.036ZM15.1105 160.414L1.24927 158.448L1.11048 159.426V160.414H15.1105ZM25.2634 102.229L11.6537 98.9464L11.6457 98.9799L11.6378 99.0133L25.2634 102.229ZM46.2039 41.7331L58.4564 48.5063L58.5051 48.4183L58.5525 48.3296L46.2039 41.7331ZM71.745 19.4673L67.6286 6.08608L67.6175 6.08951L71.745 19.4673ZM50.6458 170.287V184.287H52.9028L55.0454 183.578L50.6458 170.287ZM53.8186 170.077L49.4191 183.368L50.5756 183.751L51.7809 183.928L53.8186 170.077ZM57.1501 169.867L55.2502 155.996L54.6876 156.073L54.1331 156.196L57.1501 169.867ZM69.524 162.305L78.8417 172.754L79.8676 171.839L80.6959 170.742L69.524 162.305ZM73.3314 141.509L63.044 151.005L63.3235 151.308L63.6203 151.594L73.3314 141.509ZM62.0679 140.879L66.1023 154.285L66.3723 154.204L66.6388 154.112L62.0679 140.879ZM55.2464 142.14L54.3654 128.167L41.2464 128.995V142.14H55.2464ZM55.2464 142.56L69.0033 145.157L69.2464 143.87V142.56H55.2464ZM53.66 149.912L67.2364 153.329L67.2364 153.329L53.66 149.912ZM52.2322 156.003L38.5472 153.05L38.5333 153.115L38.5201 153.179L52.2322 156.003ZM50.0113 170.287L36.0921 168.785L34.4196 184.287H50.0113V170.287ZM80.1529 61.0582L83.4297 47.4471L83.011 47.3463L82.5869 47.2714L80.1529 61.0582ZM69.8413 70.9308L82.2663 77.3821L82.271 77.3731L69.8413 70.9308ZM64.4475 91.3062L50.5817 89.3729L46.6604 117.497L71.3571 103.482L64.4475 91.3062ZM70.9518 88.1554L76.1202 101.166L76.3644 101.069L76.6048 100.963L70.9518 88.1554ZM77.1387 85.0046L70.1896 72.8509L70.1136 72.8944L70.0382 72.9388L77.1387 85.0046ZM87.133 75.342L75.3361 67.8033L75.0339 68.2762L74.7705 68.7718L87.133 75.342ZM89.354 66.0996L102.626 61.6446L102.198 60.3697L101.536 59.1996L89.354 66.0996ZM83.167 60.008L90.6931 48.2029L80.4815 41.6928L72.5688 50.8605L83.167 60.008ZM142.809 42.9935L131.129 35.275L131.103 35.3148L131.077 35.3549L142.809 42.9935ZM165.019 24.0885L169.159 37.4625L169.251 37.4338L169.344 37.4038L165.019 24.0885ZM180.883 24.9287L174.836 37.5553L185.425 42.6268L192.263 33.0827L180.883 24.9287ZM196.113 19.0472L192.757 32.6391L192.768 32.6418L192.778 32.6444L196.113 19.0472ZM210.707 31.8605L224.392 28.9076L223.946 26.8391L222.908 24.9948L210.707 31.8605ZM211.977 36.2717L198.657 40.5829L198.76 40.9028L198.879 41.2174L211.977 36.2717ZM214.039 42.7834L200.511 46.3892L200.609 46.7576L200.727 47.1201L214.039 42.7834ZM215.149 99.0783L228.954 101.406L228.955 101.402L215.149 99.0783ZM189.291 172.388L201.201 179.747L201.201 179.747L189.291 172.388ZM176.441 187.722L167.354 177.072L166.902 177.457L166.485 177.879L176.441 187.722ZM149.155 198.014L150.264 184.058L150.157 184.05L150.05 184.043L149.155 198.014ZM132.657 191.503L141.921 181.007L141.179 180.352L140.353 179.808L132.657 191.503ZM115.365 118.823L101.558 116.506L101.556 116.515L101.555 116.523L115.365 118.823ZM144.713 154.533L158.604 156.281L158.644 155.959L158.67 155.636L144.713 154.533ZM144.555 155.793L130.664 154.045L130.434 155.873L130.685 157.698L144.555 155.793ZM144.872 158.104L131.002 160.008L131.01 160.069L131.019 160.129L144.872 158.104ZM148.045 168.186L136.156 175.58L136.258 175.744L136.365 175.905L148.045 168.186ZM151.693 172.388L144.593 184.453L154.212 190.114L161.874 181.998L151.693 172.388ZM154.866 169.237L145.349 158.969L145.349 158.969L154.866 169.237ZM157.722 165.666L145.777 158.363L145.758 158.395L145.739 158.426L157.722 165.666ZM174.537 119.454L188.236 122.344L188.236 122.344L174.537 119.454ZM178.979 66.5197L192.95 65.6101L189.996 20.2359L166.917 59.4138L178.979 66.5197ZM165.971 90.676L153.447 84.4189L153.447 84.4189L165.971 90.676ZM155.183 113.992L142.232 108.676L142.213 108.721L142.195 108.767L155.183 113.992ZM266.179 73.4515L252.353 75.6498L258.583 114.836L278.324 80.4166L266.179 73.4515ZM282.202 45.5141L294.346 52.4792L297.22 47.469L295.725 41.8902L282.202 45.5141ZM283.471 31.8605L272.299 23.4232L271.25 24.8127L270.573 26.4169L283.471 31.8605ZM302.349 15.6863L297.768 2.45707L297.562 2.52832L297.359 2.60592L302.349 15.6863ZM320.593 16.1064L327.145 3.73452L327.016 3.66603L326.885 3.60025L320.593 16.1064ZM326.78 22.6181L339.284 16.3223L339.284 16.3222L326.78 22.6181ZM327.573 34.3812L340.793 38.9892L341.124 38.0385L341.316 37.0502L327.573 34.3812ZM312.185 61.8985L323.611 69.9884L323.638 69.9495L323.666 69.9105L312.185 61.8985ZM302.667 75.132L313.969 83.3929L313.97 83.3929L302.667 75.132ZM294.259 87.3152L282.485 79.7405L282.409 79.8585L282.335 79.9779L294.259 87.3152ZM287.913 98.8682L300.418 105.164L300.463 105.074L300.507 104.983L287.913 98.8682ZM281.885 110.211L269.667 103.376L267.218 107.753L268.106 112.689L281.885 110.211ZM288.706 137.728L275.225 141.504L275.245 141.577L275.267 141.65L288.706 137.728ZM296.162 165.876L282.471 168.798L282.477 168.829L282.484 168.86L296.162 165.876ZM298.542 184.361L312.266 187.125L312.591 185.513L312.533 183.869L298.542 184.361ZM296.638 188.352L304.367 200.025L304.367 200.025L296.638 188.352ZM293.941 189.402L291.904 175.551L291.779 175.569L291.655 175.59L293.941 189.402ZM291.562 189.402L294.164 175.646L292.874 175.402H291.562V189.402ZM290.293 190.662L276.402 188.914L275.941 192.579L277.348 195.995L290.293 190.662ZM290.134 194.864L302.205 201.954L302.205 201.954L290.134 194.864ZM286.803 197.594L281.849 184.5L281.495 184.634L281.15 184.786L286.803 197.594ZM276.015 196.964L266.604 207.329L267.907 208.512L269.462 209.336L276.015 196.964ZM265.069 177.849L278.142 172.839L278.134 172.819L278.126 172.798L265.069 177.849ZM257.93 152.222L271.592 149.165L263.594 113.422L245.712 145.387L257.93 152.222ZM252.219 163.985L265.073 169.533L265.108 169.452L265.142 169.37L252.219 163.985ZM246.984 175.538L234.341 169.526L234.291 169.63L234.244 169.735L246.984 175.538ZM234.769 194.233L242.497 205.907L243.306 205.371L244.034 204.729L234.769 194.233ZM213.669 197.594L205.57 209.013L207.095 210.095L208.85 210.738L213.669 197.594ZM210.179 173.228L223.594 177.233L223.634 177.099L223.672 176.964L210.179 173.228ZM213.669 165.246L223.381 175.33L224.176 174.564L224.841 173.683L213.669 165.246ZM214.463 164.195V150.195H207.492L203.291 155.758L214.463 164.195ZM214.621 163.985L203.449 155.548L200.621 159.293V163.985H214.621ZM215.097 162.935L202.345 157.157L202.159 157.567L202 157.989L215.097 162.935ZM217.16 158.944L229.481 165.591L229.612 165.348L229.734 165.099L217.16 158.944ZM229.692 134.578L218.012 126.859L217.657 127.396L217.353 127.964L229.692 134.578ZM233.024 129.536L244.704 137.255L244.789 137.125L244.872 136.993L233.024 129.536ZM238.1 121.554L249.881 129.117L249.95 129.01L250.017 128.901L238.1 121.554ZM246.349 108.741L257.521 117.178L261.908 111.37L259.673 104.443L246.349 108.741ZM238.417 81.2236L224.617 83.5771L224.644 83.7351L224.674 83.8925L238.417 81.2236ZM235.562 46.1443L249.556 45.7417L249.499 43.766L248.898 41.8833L235.562 46.1443ZM238.735 32.7008L226.846 25.3068L226.831 25.332L226.815 25.3571L238.735 32.7008ZM249.205 23.2483L244.251 10.154L244.223 10.1647L244.194 10.1756L249.205 23.2483ZM257.93 28.2896L271.444 24.6309L271.44 24.6185L271.437 24.606L257.93 28.2896ZM262.531 50.5555L248.671 52.5305L248.687 52.6474L248.706 52.7641L262.531 50.5555ZM348.134 136.258L335.249 130.784L334.94 131.512L334.714 132.27L348.134 136.258ZM340.52 161.885L327.099 157.897L327.049 158.067L327.003 158.239L340.52 161.885ZM334.967 184.991L321.591 180.858L321.566 180.941L321.541 181.023L334.967 184.991ZM330.525 192.553L321.126 182.178L320.986 182.304L320.849 182.435L330.525 192.553ZM324.021 196.544L319.45 183.311L319.116 183.427L318.788 183.559L324.021 196.544ZM316.406 197.804L315.635 211.783L315.65 211.784L315.666 211.785L316.406 197.804ZM309.585 195.914L302.243 207.834L302.502 207.994L302.767 208.142L309.585 195.914ZM304.826 182.05L318.517 184.972L318.576 184.699L318.623 184.423L304.826 182.05ZM318.469 113.992L304.899 110.548L304.889 110.588L304.879 110.627L318.469 113.992ZM329.097 73.6616L315.656 69.7461L315.637 69.8131L315.618 69.8803L329.097 73.6616ZM337.981 42.5734L351.46 46.3581L351.832 45.0344L351.939 43.6638L337.981 42.5734ZM341.789 31.6505L353.314 39.598L353.314 39.598L341.789 31.6505ZM349.562 23.6684L341.651 12.1177L341.556 12.1828L341.462 12.2495L349.562 23.6684ZM359.08 19.2572L362.556 32.8189L362.825 32.75L363.091 32.6705L359.08 19.2572ZM367.806 18.8371L364.083 32.333L364.083 32.333L367.806 18.8371ZM373.358 23.4583L360.78 29.6051L360.888 29.8267L361.004 30.0443L373.358 23.4583ZM373.675 33.751L387.101 37.7187L387.212 37.3456L387.301 36.9668L373.675 33.751ZM365.585 61.0582L352.168 57.0585L352.168 57.0585L365.585 61.0582ZM361.301 75.342L374.634 79.6137L374.669 79.5024L374.703 79.3906L361.301 75.342ZM356.859 89.2057L343.527 84.934L338.044 102.047L355.978 103.178L356.859 89.2057ZM365.267 87.9453L369.162 101.393L369.207 101.38L369.251 101.367L365.267 87.9453ZM378.593 86.0548L375.799 99.7731L392.593 103.194V86.0548H378.593ZM379.386 82.4839L392.741 86.6862L393.021 85.7952L393.181 84.8749L379.386 82.4839ZM389.381 35.4315L402.933 38.9435L402.99 38.7235L403.04 38.5017L389.381 35.4315ZM409.845 16.9466V2.94661H409.489L409.133 2.96473L409.845 16.9466ZM419.681 21.1477L408.711 29.8465L408.801 29.9596L408.893 30.0709L419.681 21.1477ZM420.633 33.1209L407.446 28.4181L407.259 28.9426L407.114 29.4803L420.633 33.1209ZM400.01 118.613L386.262 115.966L386.257 115.991L386.253 116.016L400.01 118.613ZM390.967 167.346L377.18 164.917L377.165 165.001L377.151 165.085L390.967 167.346ZM387.318 182.26L398.86 190.184L398.86 190.184L387.318 182.26ZM383.987 185.411L377.913 172.797L377.054 173.211L376.258 173.737L383.987 185.411ZM380.814 187.302L374.261 174.93L374.261 174.93L380.814 187.302ZM378.276 191.503V205.503H388.862L391.746 195.318L378.276 191.503ZM377.8 191.503V177.503H367.732L364.528 187.048L377.8 191.503ZM372.248 197.384L378.412 209.954L378.412 209.954L372.248 197.384ZM363.522 198.855L365.489 184.993L365.19 184.951L364.889 184.921L363.522 198.855ZM356.225 194.653L367.172 185.927L367.166 185.918L367.159 185.91L356.225 194.653ZM354.797 183.521L368.554 186.118L368.625 185.74L368.676 185.359L354.797 183.521ZM360.032 157.894L373.558 161.508L373.564 161.483L373.571 161.457L360.032 157.894ZM365.743 136.258L352.282 132.411L352.246 132.539L352.212 132.667L365.743 136.258ZM369.392 121.764L383.086 124.673L390.196 91.2008L361.664 110.091L369.392 121.764ZM366.854 123.025L362.454 109.734L362.175 109.826L361.9 109.93L366.854 123.025ZM363.998 124.705L371.218 136.7L371.72 136.398L372.195 136.054L363.998 124.705ZM360.35 126.596L354.697 113.788L354.485 113.881L354.276 113.982L360.35 126.596ZM356.859 128.276L350.786 115.662L350.591 115.756L350.399 115.856L356.859 128.276ZM349.562 132.897L340.756 122.014L338.042 124.21L336.677 127.423L349.562 132.897ZM366.061 122.184L361.661 108.894L366.061 136.184V122.184ZM440.921 155.583L442.821 141.713L441.876 141.583H440.921V155.583ZM468.366 155.163L474.019 142.355L470.083 140.618L465.851 141.391L468.366 155.163ZM472.015 162.305L485.966 163.476L485.971 163.417L485.975 163.359L472.015 162.305ZM472.173 166.086L458.366 168.403L458.366 168.403L472.173 166.086ZM475.188 169.237L469.26 181.92L469.397 181.984L469.535 182.045L475.188 169.237ZM475.981 173.018L462.256 170.254L462.203 170.517L462.161 170.781L475.981 173.018ZM473.443 179.529L485.555 186.55L485.561 186.54L485.566 186.531L473.443 179.529ZM461.069 192.133L465.468 205.424L466.428 205.106L467.332 204.654L461.069 192.133ZM443.142 196.544L441.792 182.609L441.786 182.61L443.142 196.544ZM419.664 195.494L416.387 209.105L416.878 209.223L417.377 209.306L419.664 195.494ZM406.179 180.16L420.168 180.716L420.179 180.438V180.16H406.179ZM420.774 91.5163L407.473 87.1486L407.47 87.1561L420.774 91.5163ZM431.562 61.0582L418.464 56.1125L418.464 56.1125L431.562 61.0582ZM432.989 53.4962L419.029 52.4419L419.009 52.7047L418.999 52.968L432.989 53.4962ZM434.417 38.1622L420.841 34.7444L420.841 34.7444L434.417 38.1622ZM437.749 33.751L443.975 46.2903L444.133 46.2119L444.289 46.1294L437.749 33.751ZM489.941 20.3075L487.091 34.0144L488.283 34.2622L489.5 34.3005L489.941 20.3075ZM498.666 26.3991L485.455 31.0316L485.538 31.2694L485.63 31.504L498.666 26.3991ZM499.142 39.2125L485.542 35.8895L485.507 36.0327L485.475 36.1767L499.142 39.2125ZM492.638 52.656L481.601 44.0428L481.533 44.1302L481.466 44.2187L492.638 52.656ZM480.581 60.4281L477.816 46.7039L476.677 46.9334L475.591 47.3477L480.581 60.4281ZM469.159 65.2593L461.859 53.3134L461.754 53.3777L461.65 53.4438L469.159 65.2593ZM463.448 71.9811L476.067 78.0455L476.231 77.7027L476.377 77.3515L463.448 71.9811ZM456.627 89.8358L442.812 87.5677L442.782 87.7491L442.757 87.9313L456.627 89.8358ZM455.992 94.457L442.122 92.5525L440.892 101.512L448.553 106.317L455.992 94.457ZM463.29 95.7174L465.327 109.568L465.61 109.527L465.892 109.473L463.29 95.7174ZM471.38 94.247L473.763 108.043L474.081 107.988L474.397 107.918L471.38 94.247ZM477.408 94.0369L473.587 107.505L473.706 107.539L473.825 107.57L477.408 94.0369ZM478.36 100.339L464.784 96.9208L464.753 97.045L464.724 97.1697L478.36 100.339ZM473.443 112.732L461.054 106.211L460.995 106.323L460.938 106.436L473.443 112.732ZM463.448 122.815L466.903 136.382L468.276 136.032L469.552 135.414L463.448 122.815ZM457.737 124.495L461.689 137.926L462.307 137.744L462.906 137.506L457.737 124.495ZM455.516 125.125L458.118 138.881L458.613 138.788L459.1 138.659L455.516 125.125ZM449.171 125.755L448.051 111.8L439.751 112.466L436.374 120.077L449.171 125.755ZM440.128 151.802L426.33 149.434L426.326 149.459L426.321 149.485L440.128 151.802ZM577.576 39.6326L564.841 33.8171L560.003 44.4113L569.54 51.0965L577.576 39.6326ZM584.398 50.7655L598.272 52.6367L598.58 50.3558L598.141 48.0966L584.398 50.7655ZM578.687 97.6079L592.603 99.1366L592.604 99.123L578.687 97.6079ZM573.769 136.468L587.607 138.587L587.61 138.573L587.612 138.559L573.769 136.468ZM570.437 159.784L556.541 158.082L556.524 158.222L556.51 158.363L570.437 159.784ZM568.534 175.328L582.219 178.281L582.323 177.798L582.393 177.309L568.534 175.328ZM567.582 179.74L553.897 176.787L553.784 177.307L553.712 177.835L567.582 179.74ZM566.947 183.941L553.14 181.623L553.121 181.736L553.104 181.85L566.947 183.941ZM566.313 188.352L577.993 196.07L579.749 193.412L580.182 190.256L566.313 188.352ZM541.406 189.612L551.961 180.414L551.713 180.13L551.45 179.859L541.406 189.612ZM540.454 177.219L526.753 174.344L526.741 174.4L526.73 174.455L540.454 177.219ZM541.406 167.556L527.425 166.828L527.416 167.003L527.411 167.179L541.406 167.556ZM542.041 157.474L555.997 158.583L556.041 158.029V157.474H542.041ZM542.041 157.054H556.041V134.694L535.926 144.459L542.041 157.054ZM533.474 163.145L543.052 173.357L543.197 173.22L543.339 173.079L533.474 163.145ZM528.715 167.766L537.98 178.262L538.565 177.746L539.089 177.168L528.715 167.766ZM526.177 169.237L529.761 182.77L530.568 182.556L531.345 182.248L526.177 169.237ZM523.321 169.867L524.294 183.833L524.954 183.787L525.607 183.679L523.321 169.867ZM519.197 171.127L509.577 160.956L507.437 162.979L506.294 165.693L519.197 171.127ZM502.698 195.494L498.127 182.261L497.748 182.392L497.377 182.544L502.698 195.494ZM493.497 196.334L496.613 182.685L496.314 182.617L496.012 182.562L493.497 196.334ZM486.199 189.192L499.07 183.684L498.312 181.911L497.102 180.409L486.199 189.192ZM488.738 154.743L475.244 151.011L475.234 151.049L475.223 151.087L488.738 154.743ZM500.477 119.034L487.347 114.175L487.339 114.197L487.331 114.22L500.477 119.034ZM515.389 82.4839L502.674 76.6255L502.67 76.6332L502.667 76.641L515.389 82.4839ZM549.179 26.189L542.362 13.961L539.978 15.2905L538.267 17.4185L549.179 26.189ZM555.684 22.408L562.903 34.4031L563.161 34.2478L563.412 34.0816L555.684 22.408ZM562.505 19.8874L561.664 5.91268L561.644 5.91388L561.624 5.91513L562.505 19.8874ZM569.644 20.9377L565.073 34.1705L565.073 34.1705L569.644 20.9377ZM575.831 24.7187L585.741 14.8292L585.718 14.807L585.696 14.7848L575.831 24.7187ZM543.627 94.8772L531.123 88.5813L530.465 89.8866L530.092 91.2994L543.627 94.8772ZM536.964 118.193L550.309 122.426L550.321 122.388L550.333 122.351L536.964 118.193ZM531.253 136.678L517.837 132.678L512.179 151.655L531.956 150.661L531.253 136.678ZM543.786 136.048L544.489 150.03L556.585 149.422L557.724 137.364L543.786 136.048ZM546.641 109.371L532.741 107.705L532.741 107.705L546.641 109.371ZM549.655 82.904L563.575 84.4057L537.151 76.6081L549.655 82.904ZM543.786 136.468L546.388 150.224L557.786 148.068V136.468H543.786ZM543.786 136.258H557.786V120.76L542.367 122.33L543.786 136.258ZM679.653 96.7677L665.698 95.6543L665.693 95.7204L665.688 95.7865L679.653 96.7677ZM677.115 115.253L663.391 112.488L663.368 112.6L663.348 112.711L677.115 115.253ZM671.88 133.737L658.821 128.691L658.782 128.792L658.745 128.893L671.88 133.737ZM663.789 151.172L651.608 144.272L651.558 144.36L651.51 144.448L663.789 151.172ZM653.478 166.716L642.544 157.973L642.544 157.973L653.478 166.716ZM641.263 178.689L632.915 167.45L632.774 167.555L632.636 167.663L641.263 178.689ZM614.294 186.461L617.589 172.855L605.252 169.866L601.074 181.853L614.294 186.461ZM605.727 196.754L600.894 183.615L600.619 183.716L600.348 183.829L605.727 196.754ZM594.622 196.754L600.001 183.829L599.853 183.767L599.703 183.708L594.622 196.754ZM585.104 128.696L598.871 131.242L598.88 131.19L598.889 131.138L585.104 128.696ZM592.56 96.7677L579.186 92.6272L579.164 92.6992L579.143 92.7714L592.56 96.7677ZM604.458 49.2951L590.546 47.7252L590.54 47.7821L590.534 47.8391L604.458 49.2951ZM612.073 26.6092L603.488 15.5498L603.426 15.5982L603.364 15.6474L612.073 26.6092ZM629.523 20.5175L631.291 6.62965L631.291 6.62965L629.523 20.5175ZM644.435 25.7689L651.926 13.9411L651.914 13.9338L651.902 13.9265L644.435 25.7689ZM668.073 49.0851L657.005 57.6583L657.024 57.6834L657.044 57.7084L668.073 49.0851ZM617.308 159.784L603.352 158.675L601.048 187.651L625.141 171.388L617.308 159.784ZM630.316 148.651L640.894 157.823L640.904 157.811L640.915 157.799L630.316 148.651ZM639.835 137.939L650.141 147.414L650.599 146.916L651.007 146.376L639.835 137.939ZM649.829 116.513L663.392 119.985L663.393 119.98L649.829 116.513ZM640.945 75.132L631.192 85.176L631.419 85.3956L631.654 85.6047L640.945 75.132ZM633.807 68.8303L642.802 58.103L626.988 44.8414L620.513 64.4381L633.807 68.8303ZM630.475 82.904L616.632 80.8131L616.61 80.9595L616.591 81.1065L630.475 82.904ZM627.778 97.1878L614.202 93.77L614.169 93.8984L614.14 94.0274L627.778 97.1878ZM623.495 115.673L609.856 112.512L609.77 112.884L609.704 113.261L623.495 115.673ZM620.005 135.628L606.214 133.216L606.096 133.891L606.045 134.574L620.005 135.628ZM619.053 143.82L632.86 146.137L632.87 146.078L632.879 146.018L619.053 143.82ZM617.942 151.802L604.031 150.226L604.005 150.459L603.987 150.693L617.942 151.802ZM95.5834 36.9591L96.2179 37.1692L105.017 10.5877L104.382 10.3776L95.5834 36.9591ZM91.9088 34.8402C93.5669 36.1575 94.9308 37.598 96.0531 39.1667L118.825 22.874C116.14 19.1212 112.956 15.8005 109.326 12.9167L91.9088 34.8402ZM96.4918 39.7473C97.9636 41.5935 99.3057 43.6247 100.511 45.8593L125.154 32.5657C123.187 28.9187 120.933 25.4885 118.386 22.2934L96.4918 39.7473ZM100.85 46.4522C101.854 48.1132 102.694 50.031 103.329 52.2698L130.269 44.64C128.999 40.1571 127.196 35.9132 124.815 31.9727L100.85 46.4522ZM103.434 52.624C105.683 59.8353 104.473 69.7431 94.7999 83.7833L117.857 99.6693C130.182 81.7812 135.952 62.8413 130.164 44.2858L103.434 52.624ZM94.8177 83.7575C90.8428 89.4991 86.4778 94.252 81.7555 98.1173L99.4907 119.784C106.402 114.127 112.507 107.397 117.839 99.6952L94.8177 83.7575ZM81.0032 119.122C83.0255 121.035 85.3548 122.909 87.9848 124.36L101.511 99.8435C101.585 99.8843 101.503 99.8464 101.263 99.6635C101.027 99.4833 100.687 99.1997 100.243 98.7795L81.0032 119.122ZM89.4655 125.067C89.1358 124.933 89.2056 124.923 89.7844 125.285C90.313 125.616 91.0657 126.129 92.0702 126.881L108.847 104.464C106.237 102.511 103.148 100.407 100.03 99.1364L89.4655 125.067ZM92.5013 127.191C91.3018 126.363 90.8763 125.511 90.8618 125.48C90.857 125.47 90.9308 125.623 91.0368 125.996C91.1422 126.367 91.2644 126.904 91.375 127.636L119.061 123.454C118.115 117.194 115.617 109.128 108.416 104.154L92.5013 127.191ZM91.3842 127.696C91.8193 130.494 91.7744 134.215 90.8376 139.064L118.329 144.375C119.719 137.181 120.097 130.119 119.052 123.394L91.3842 127.696ZM90.7945 139.298C89.9746 143.966 88.3723 149.047 85.8348 154.567L111.275 166.262C114.661 158.898 117.077 151.516 118.372 144.141L90.7945 139.298ZM85.8032 154.636C83.56 159.587 80.6342 164.001 77.0043 167.933L97.579 186.925C103.256 180.775 107.839 173.846 111.307 166.193L85.8032 154.636ZM76.9368 168.007C69.0252 176.702 61.1355 179.403 52.2975 178.25L48.6769 206.015C67.7596 208.504 84.4062 201.402 97.6466 186.851L76.9368 168.007ZM50.4872 178.133C49.8736 178.133 49.8967 178.094 50.3144 178.163C50.5376 178.2 51.0963 178.304 51.846 178.566C52.5401 178.81 53.9072 179.364 55.3885 180.541L37.9712 202.464C41.1256 204.97 44.5286 205.586 45.7422 205.787C47.429 206.067 49.0913 206.133 50.4872 206.133V178.133ZM55.3885 180.541C54.9521 180.194 54.7378 180.011 54.6757 179.957L36.1458 200.948C36.7182 201.453 37.35 201.971 37.9712 202.464L55.3885 180.541ZM54.6757 179.957C52.3208 177.878 49.8487 177.032 48.7484 176.696C47.4079 176.286 46.1501 176.071 45.1861 175.943L41.5107 203.701C41.6043 203.713 41.219 203.673 40.5659 203.474C40.223 203.369 39.6552 203.175 38.9651 202.838C38.2982 202.513 37.2562 201.928 36.1458 200.948L54.6757 179.957ZM33.1681 180.212C32.2589 181.175 31.7258 181.311 31.4695 181.364L37.1423 208.783C43.6547 207.436 49.1499 204.071 53.5287 199.433L33.1681 180.212ZM31.4695 181.364C30.9209 181.477 30.732 181.42 30.4437 181.288L18.8141 206.759C24.6598 209.428 30.9223 210.07 37.1423 208.783L31.4695 181.364ZM30.6139 181.367C30.5302 181.328 29.8618 181.012 28.8629 179.424L5.16545 194.338C8.3969 199.473 12.805 203.918 18.6438 206.679L30.6139 181.367ZM29.0302 179.697C28.7338 179.201 28 177.532 28 173.648H0C0 180.686 1.27568 187.84 4.99809 194.066L29.0302 179.697ZM27.9471 174.863C28.2185 171.749 28.6101 170.201 28.7903 169.689L2.38246 160.382C1.08202 164.072 0.416065 168.265 0.0528551 172.433L27.9471 174.863ZM29.1628 161.618C29.1958 161.749 29.1789 161.725 29.1558 161.501C29.1332 161.281 29.1105 160.926 29.1105 160.414H1.11048C1.11048 162.966 1.32434 165.73 2.00999 168.453L29.1628 161.618ZM28.9717 162.381C32.549 137.165 35.8633 118.266 38.8891 105.445L11.6378 99.0133C8.31796 113.08 4.86366 132.971 1.24927 158.448L28.9717 162.381ZM38.8732 105.512C45.2196 79.1996 51.849 60.4591 58.4564 48.5063L33.9514 34.96C25.541 50.1743 18.21 71.7645 11.6537 98.9464L38.8732 105.512ZM58.5525 48.3296C63.2153 39.6007 69.015 34.9607 75.8724 32.845L67.6175 6.08951C52.6884 10.6956 41.4607 20.8995 33.8554 35.1367L58.5525 48.3296ZM75.8613 32.8485C82.4506 30.8215 87.2551 31.7524 91.7973 35.026L108.168 12.3108C96.0006 3.5412 81.9798 1.67139 67.6287 6.08609L75.8613 32.8485ZM55.0454 183.578C54.814 183.654 52.5397 184.401 49.4191 183.368L58.2182 156.786C53.4054 155.193 49.0159 156.079 46.2463 156.996L55.0454 183.578ZM51.7809 183.928C54.8907 184.385 57.7836 184.064 60.1671 183.538L54.1331 156.196C54.088 156.206 54.2134 156.174 54.4844 156.157C54.7559 156.14 55.2301 156.134 55.8564 156.226L51.7809 183.928ZM59.05 183.737C63.2679 183.16 66.9609 181.369 69.8442 179.607C72.8574 177.766 75.8703 175.404 78.8417 172.754L60.2063 151.856C57.9955 153.827 56.3549 155.036 55.2434 155.715C54.0022 156.474 54.0993 156.154 55.2502 155.996L59.05 183.737ZM80.6959 170.742C85.1728 164.814 88.3527 157.915 88.7414 150.196L60.7768 148.788C60.7425 149.47 60.4323 151.113 58.3521 153.868L80.6959 170.742ZM88.7414 150.196C88.8746 147.551 88.8402 144.665 88.3421 141.88C87.9012 139.416 86.7565 135.002 83.0424 131.425L63.6203 151.594C62.266 150.29 61.5665 148.983 61.2303 148.207C60.8943 147.432 60.796 146.902 60.7795 146.81C60.7573 146.686 60.8552 147.231 60.7768 148.788L88.7414 150.196ZM83.6187 132.014C79.3461 127.385 73.7567 125.619 68.5722 125.619V153.619C68.115 153.619 67.2161 153.546 66.1007 153.103C64.9362 152.64 63.8769 151.908 63.044 151.005L83.6187 132.014ZM68.5722 125.619C64.6732 125.619 60.9173 126.465 57.4971 127.646L66.6388 154.112C68.0835 153.613 68.6637 153.619 68.5722 153.619V125.619ZM58.0336 127.473C56.6399 127.893 55.4243 128.101 54.3654 128.167L56.1274 156.112C59.5104 155.899 62.8425 155.266 66.1023 154.285L58.0336 127.473ZM41.2464 142.14V142.56H69.2464V142.14H41.2464ZM41.4895 139.962C40.9975 142.568 40.5266 144.734 40.0836 146.494L67.2364 153.329C67.851 150.888 68.4377 148.153 69.0033 145.157L41.4895 139.962ZM40.0836 146.494C39.519 148.737 39.0063 150.923 38.5472 153.05L65.9173 158.956C66.3042 157.163 66.7434 155.288 67.2364 153.329L40.0836 146.494ZM38.5201 153.179C37.4743 158.256 36.6666 163.46 36.0921 168.785L63.9305 171.789C64.4135 167.312 65.0865 162.993 65.9444 158.828L38.5201 153.179ZM50.0113 184.287H50.6458V156.287H50.0113V184.287ZM82.5869 47.2714C74.797 45.8962 68.8448 49.8044 65.5135 52.9939C62.1764 56.1889 59.5523 60.3582 57.4116 64.4886L82.271 77.3731C83.0013 75.964 83.6236 74.9307 84.1219 74.2025C84.6343 73.4537 84.9011 73.1959 84.8773 73.2187C84.8715 73.2242 84.2868 73.7965 83.0692 74.2995C81.715 74.8589 79.8293 75.2176 77.7189 74.845L82.5869 47.2714ZM57.4163 64.4795C53.9835 71.0909 51.9211 79.766 50.5817 89.3729L78.3134 93.2395C79.5122 84.6417 81.0456 79.7331 82.2663 77.3821L57.4163 64.4795ZM71.3571 103.482C73.0841 102.502 74.671 101.742 76.1202 101.166L65.7834 75.1443C63.0021 76.2491 60.2528 77.5895 57.5379 79.1301L71.3571 103.482ZM76.6048 100.963C79.2741 99.7852 81.8247 98.4913 84.2393 97.0703L70.0382 72.9388C68.6454 73.7584 67.0713 74.5651 65.2988 75.3474L76.6048 100.963ZM84.0878 97.1582C90.4611 93.5141 95.9669 88.5519 99.4956 81.9122L74.7705 68.7718C74.2803 69.6941 73.1233 71.1736 70.1896 72.8509L84.0878 97.1582ZM98.93 82.8807C102.126 77.8787 105.477 70.1375 102.626 61.6446L76.0817 70.5545C75.5197 68.8801 75.6957 67.5502 75.8208 67.0296C75.9198 66.6175 75.9448 66.8508 75.3361 67.8033L98.93 82.8807ZM101.536 59.1996C98.8396 54.44 94.8914 50.8795 90.6931 48.2029L75.641 71.813C77.1537 72.7774 77.3301 73.2779 77.1724 72.9995L101.536 59.1996ZM72.5688 50.8605C73.4038 49.893 74.8997 48.5772 77.1723 47.7853C79.5133 46.9696 81.7361 47.0394 83.4297 47.4471L76.876 74.6693C79.733 75.3572 83.0398 75.3919 86.3856 74.2261C89.6629 73.0842 92.0842 71.1032 93.7653 69.1555L72.5688 50.8605ZM154.49 50.712C160.1 42.2219 165.173 38.696 169.159 37.4625L160.879 10.7145C148.578 14.5223 138.845 23.5997 131.129 35.275L154.49 50.712ZM169.344 37.4038C171.792 36.6087 173.345 36.8411 174.836 37.5553L186.93 12.3021C178.48 8.25504 169.457 7.92729 160.695 10.7732L169.344 37.4038ZM192.263 33.0827C192.642 32.5546 192.888 32.3357 192.949 32.285C192.996 32.2467 192.9 32.3331 192.669 32.4222C192.563 32.4632 192.456 32.4937 192.358 32.5134C192.261 32.5331 192.195 32.5377 192.17 32.5386C192.119 32.5406 192.296 32.5253 192.757 32.6391L199.468 5.45521C194.078 4.1245 188.256 4.11077 182.582 6.30233C176.958 8.47396 172.674 12.3486 169.503 16.7747L192.263 33.0827ZM192.778 32.6444C193.441 32.8069 195.618 33.5936 198.507 38.7262L222.908 24.9948C217.759 15.8437 210.206 8.08815 199.447 5.44996L192.778 32.6444ZM197.022 34.8134C197.389 36.5148 197.995 38.5381 198.657 40.5829L225.296 31.9605C224.689 30.0842 224.448 29.1668 224.392 28.9076L197.022 34.8134ZM198.879 41.2174C199.428 42.6706 199.977 44.3858 200.511 46.3892L227.567 39.1776C226.831 36.4198 226.006 33.7938 225.074 31.326L198.879 41.2174ZM200.727 47.1201C204.393 58.3729 205.074 74.5918 201.344 96.7543L228.955 101.402C233.051 77.0724 232.991 55.7615 227.35 38.4468L200.727 47.1201ZM201.344 96.7501C196.71 124.233 188.604 146.866 177.381 165.028L201.201 179.747C214.726 157.859 223.859 131.619 228.954 101.406L201.344 96.7501ZM177.381 165.028C174.22 170.144 170.848 174.09 167.354 177.072L185.529 198.371C191.552 193.231 196.747 186.954 201.201 179.747L177.381 165.028ZM166.485 177.879C161.702 182.717 156.628 184.564 150.264 184.058L148.046 211.97C162.835 213.145 175.95 208.131 186.397 197.565L166.485 177.879ZM150.05 184.043C146.234 183.798 143.781 182.649 141.921 181.007L123.392 201.998C130.416 208.199 138.962 211.39 148.26 211.986L150.05 184.043ZM140.353 179.808C130.164 173.103 123.212 156.921 129.175 121.124L101.555 116.523C95.2489 154.386 99.8255 186.657 124.96 203.197L140.353 179.808ZM129.172 121.141C134.011 92.3036 142.611 68.9574 154.542 50.632L131.077 35.3549C116.568 57.6403 106.871 84.8473 101.558 116.506L129.172 121.141ZM130.823 152.784L130.664 154.045L158.445 157.542L158.604 156.281L130.823 152.784ZM130.685 157.698L131.002 160.008L158.742 156.199L158.424 153.889L130.685 157.698ZM131.019 160.129C131.792 165.414 133.247 170.903 136.156 175.58L159.933 160.793C159.948 160.817 159.757 160.51 159.495 159.678C159.237 158.857 158.959 157.682 158.725 156.079L131.019 160.129ZM136.365 175.905C137.307 177.332 138.354 178.781 139.497 180.097C140.52 181.275 142.223 183.059 144.593 184.453L158.794 160.322C159.206 160.564 159.532 160.793 159.771 160.974C160.012 161.156 160.195 161.313 160.32 161.426C160.559 161.642 160.665 161.769 160.637 161.737C160.616 161.712 160.522 161.601 160.356 161.376C160.191 161.155 159.981 160.856 159.725 160.468L136.365 175.905ZM161.874 181.998C162.732 181.089 163.569 180.259 164.383 179.505L145.349 158.969C144.048 160.175 142.77 161.445 141.513 162.777L161.874 181.998ZM164.383 179.505C166.519 177.525 168.271 175.278 169.704 172.906L145.739 158.426C145.48 158.855 145.328 158.988 145.349 158.969L164.383 179.505ZM169.666 172.968C177.955 159.411 184.012 142.358 188.236 122.344L160.839 116.563C157.025 134.639 151.872 148.394 145.777 158.363L169.666 172.968ZM188.236 122.344C192.468 102.287 194.105 83.3475 192.95 65.6101L165.009 67.4292C165.969 82.1804 164.644 98.5307 160.839 116.563L188.236 122.344ZM166.917 59.4138C162.594 66.7519 158.105 75.0966 153.447 84.4189L178.495 96.9332C182.933 88.0507 187.115 80.2911 191.042 73.6255L166.917 59.4138ZM153.447 84.4189C148.808 93.7031 145.051 101.807 142.232 108.676L168.135 119.308C170.603 113.294 174.038 105.854 178.495 96.9332L153.447 84.4189ZM142.195 108.767C135.804 124.654 131.851 139.586 130.757 153.43L158.67 155.636C159.479 145.393 162.507 133.299 168.172 119.218L142.195 108.767ZM278.324 80.4166L294.346 52.4792L270.058 38.5491L254.035 66.4864L278.324 80.4166ZM295.725 41.8902C295.485 40.997 295.381 39.6466 296.369 37.3042L270.573 26.4169C267.542 33.597 266.592 41.349 268.679 49.138L295.725 41.8902ZM294.643 40.2979C300.24 32.8875 304.589 29.816 307.34 28.7666L297.359 2.60592C287.63 6.31784 279.394 14.0292 272.299 23.4232L294.643 40.2979ZM306.931 28.9155C311.104 27.4701 313.135 28.0263 314.3 28.6125L326.885 3.60025C317.475 -1.13488 307.343 -0.858777 297.768 2.45707L306.931 28.9155ZM314.04 28.4783C314.041 28.4789 314.027 28.4708 314.004 28.4541C313.982 28.4373 313.971 28.4257 313.973 28.4278C313.976 28.4306 314.004 28.4608 314.054 28.5325C314.105 28.6052 314.181 28.7274 314.275 28.9139L339.284 16.3222C336.635 11.061 332.613 6.63041 327.145 3.73452L314.04 28.4783ZM314.275 28.9139C314.029 28.425 314.09 28.2562 314.12 28.7063C314.153 29.1844 314.134 30.1465 313.83 31.7122L341.316 37.0502C342.569 30.5987 342.716 23.1375 339.284 16.3223L314.275 28.9139ZM314.353 29.7732C312.437 35.2693 308.152 43.2143 300.704 53.8864L323.666 69.9105C331.659 58.4568 337.632 48.0569 340.793 38.9892L314.353 29.7732ZM300.759 53.8085C297.626 58.2336 294.494 62.5878 291.364 66.871L313.97 83.3929C317.185 78.9938 320.398 74.5256 323.611 69.9884L300.759 53.8085ZM291.364 66.871C288.058 71.3944 285.093 75.6863 282.485 79.7405L306.033 94.8898C308.289 91.382 310.93 87.5518 313.969 83.3929L291.364 66.871ZM282.335 79.9779C279.769 84.1478 277.429 88.4065 275.319 92.7537L300.507 104.983C302.204 101.488 304.094 98.0446 306.182 94.6524L282.335 79.9779ZM275.409 92.5724C273.599 96.1674 271.685 99.7686 269.667 103.376L294.103 117.046C296.315 113.092 298.42 109.131 300.418 105.164L275.409 92.5724ZM268.106 112.689C269.289 119.27 271.72 128.986 275.225 141.504L302.188 133.953C298.713 121.544 296.595 112.915 295.664 107.734L268.106 112.689ZM275.267 141.65C278.838 153.89 281.206 162.874 282.471 168.798L309.854 162.954C308.369 155.994 305.766 146.213 302.146 133.807L275.267 141.65ZM282.484 168.86C283.693 174.399 284.37 179.726 284.551 184.852L312.533 183.869C312.29 176.953 311.382 169.956 309.841 162.892L282.484 168.86ZM284.817 181.597C284.74 181.98 284.766 181.633 285.113 180.907C285.423 180.255 286.466 178.296 288.91 176.678L304.367 200.025C307.657 197.847 309.44 194.943 310.385 192.961C311.366 190.905 311.92 188.842 312.266 187.125L284.817 181.597ZM288.91 176.678C289.682 176.167 290.711 175.727 291.904 175.551L295.979 203.253C299.075 202.797 301.902 201.657 304.367 200.025L288.91 176.678ZM291.655 175.59C292.208 175.498 293.084 175.442 294.164 175.646L288.96 203.158C291.52 203.642 293.983 203.586 296.227 203.214L291.655 175.59ZM291.562 175.402C288.44 175.402 284.26 176.371 280.824 179.783C277.63 182.955 276.685 186.665 276.402 188.914L304.183 192.411C304.006 193.82 303.325 196.899 300.554 199.651C297.541 202.643 293.943 203.402 291.562 203.402V175.402ZM277.348 195.995C277.043 195.255 276.677 193.988 276.739 192.34C276.804 190.626 277.313 189.049 278.062 187.773L302.205 201.954C305.495 196.354 305.274 190.275 303.237 185.33L277.348 195.995ZM278.062 187.773C278.514 187.005 279.125 186.275 279.871 185.664C280.605 185.062 281.312 184.703 281.849 184.5L291.756 210.689C295.96 209.098 299.709 206.204 302.205 201.954L278.062 187.773ZM281.15 184.786C281.203 184.763 281.352 184.705 281.582 184.662C281.815 184.618 282.065 184.602 282.305 184.616C282.812 184.645 282.931 184.785 282.568 184.592L269.462 209.336C276.527 213.077 284.625 213.858 292.456 210.402L281.15 184.786ZM285.426 186.599C284.289 185.567 281.592 181.84 278.142 172.839L251.996 182.859C255.738 192.623 260.337 201.639 266.604 207.329L285.426 186.599ZM278.126 172.798C276.287 168.044 274.087 160.313 271.592 149.165L244.268 155.279C246.85 166.818 249.409 176.171 252.012 182.9L278.126 172.798ZM245.712 145.387C243.33 149.645 241.192 154.051 239.296 158.601L265.142 169.37C266.63 165.798 268.3 162.362 270.148 159.057L245.712 145.387ZM239.365 158.438C237.739 162.206 236.064 165.902 234.341 169.526L259.627 181.551C261.5 177.613 263.315 173.607 265.073 169.533L239.365 158.438ZM234.244 169.735C230.512 177.927 227.428 182.039 225.504 183.738L244.034 204.729C250.358 199.146 255.418 190.795 259.724 181.342L234.244 169.735ZM227.04 182.56C222.81 185.36 220.407 185.153 218.489 184.45L208.85 210.738C220.68 215.076 232.344 212.629 242.497 205.907L227.04 182.56ZM221.769 186.175C221.903 186.27 222.111 186.477 222.257 186.73C222.382 186.948 222.291 186.907 222.214 186.367C222.031 185.091 222.097 182.246 223.594 177.233L196.765 169.222C192.855 182.318 191.691 199.169 205.57 209.013L221.769 186.175ZM223.672 176.964C223.905 176.12 224.12 175.424 224.31 174.862C224.503 174.293 224.654 173.915 224.752 173.69C224.857 173.451 224.856 173.491 224.72 173.712C224.647 173.831 224.514 174.036 224.311 174.299C224.11 174.559 223.805 174.922 223.381 175.33L203.958 155.161C201.39 157.635 199.921 160.587 199.097 162.473C198.154 164.631 197.368 167.035 196.687 169.492L223.672 176.964ZM224.841 173.683C225.106 173.333 225.304 173.07 225.436 172.895C225.502 172.808 225.552 172.742 225.585 172.699C225.601 172.677 225.614 172.66 225.622 172.649C225.626 172.644 225.629 172.64 225.631 172.637C225.632 172.636 225.633 172.635 225.634 172.634C225.634 172.634 225.634 172.633 225.634 172.633C225.634 172.633 225.634 172.633 225.634 172.633C225.634 172.633 225.634 172.633 225.634 172.633C225.634 172.633 225.634 172.633 225.634 172.633C225.634 172.633 225.634 172.633 214.463 164.195C203.291 155.758 203.291 155.758 203.291 155.758C203.291 155.758 203.291 155.758 203.291 155.758C203.291 155.758 203.291 155.758 203.291 155.758C203.291 155.758 203.291 155.758 203.291 155.758C203.291 155.758 203.29 155.759 203.29 155.759C203.29 155.76 203.289 155.761 203.288 155.762C203.286 155.765 203.283 155.769 203.279 155.774C203.27 155.785 203.258 155.802 203.241 155.824C203.208 155.867 203.159 155.933 203.093 156.021C202.96 156.196 202.762 156.458 202.498 156.808L224.841 173.683ZM214.463 178.195C217.895 178.195 222.526 176.853 225.753 172.58C228.421 169.048 228.621 165.417 228.621 163.985H200.621C200.621 162.694 200.795 159.168 203.41 155.705C206.584 151.502 211.136 150.195 214.463 150.195V178.195ZM225.793 172.423C226.851 171.022 227.446 169.672 227.571 169.396C227.823 168.841 228.034 168.306 228.195 167.881L202 157.989C201.949 158.124 201.975 158.045 202.068 157.839C202.115 157.734 202.224 157.501 202.389 157.194C202.522 156.947 202.875 156.309 203.449 155.548L225.793 172.423ZM227.849 168.713C227.84 168.733 227.868 168.672 227.953 168.501C228.033 168.339 228.143 168.121 228.288 167.839C228.581 167.274 228.975 166.53 229.481 165.591L204.838 152.297C203.813 154.198 202.894 155.945 202.345 157.157L227.849 168.713ZM229.734 165.099C233.349 157.715 237.446 149.747 242.032 141.191L217.353 127.964C212.631 136.773 208.374 145.049 204.585 152.789L229.734 165.099ZM241.372 142.296L244.704 137.255L221.343 121.818L218.012 126.859L241.372 142.296ZM244.872 136.993C246.434 134.512 248.104 131.887 249.881 129.117L226.319 113.991C224.501 116.823 222.786 119.519 221.175 122.079L244.872 136.993ZM250.017 128.901C254.367 121.846 256.738 118.216 257.521 117.178L235.177 100.303C233.423 102.627 230.294 107.539 226.183 114.207L250.017 128.901ZM259.673 104.443C255.305 90.9002 252.927 82.5036 252.161 78.5546L224.674 83.8925C225.811 89.7461 228.721 99.6944 233.025 113.038L259.673 104.443ZM252.218 78.87C250.896 71.1169 249.971 60.1623 249.556 45.7417L221.568 46.5469C221.999 61.534 222.977 73.9657 224.617 83.5771L252.218 78.87ZM248.898 41.8833C249.234 42.9353 249.043 43.5442 249.108 43.2685C249.194 42.9029 249.539 41.8536 250.654 40.0444L226.815 25.3571C222.724 31.9983 219.214 40.9793 222.226 50.4054L248.898 41.8833ZM250.623 40.0947C252.461 37.1389 253.805 36.4782 254.215 36.3209L244.194 10.1756C236.567 13.0992 230.931 18.7401 226.846 25.3068L250.623 40.0947ZM254.159 36.3426C254.15 36.346 251.223 37.398 247.714 35.3703C244.585 33.5625 244.182 31.0891 244.423 31.9732L271.437 24.606C270.303 20.4488 267.759 14.6145 261.722 11.1262C255.304 7.41809 248.702 8.47013 244.251 10.154L254.159 36.3426ZM244.417 31.9483C246.28 38.8308 247.696 45.6906 248.671 52.5305L276.391 48.5805C275.25 40.5764 273.599 32.5923 271.444 24.6309L244.417 31.9483ZM248.706 52.7641C249.869 60.0423 251.084 67.6708 252.353 75.6498L280.006 71.2532C278.736 63.268 277.519 55.6325 276.355 48.3468L248.706 52.7641ZM334.714 132.27L327.099 157.897L353.94 165.872L361.554 140.246L334.714 132.27ZM327.003 158.239C325.862 162.467 324.842 166.823 323.94 171.304L351.388 176.832C352.178 172.911 353.062 169.145 354.036 165.531L327.003 158.239ZM323.94 171.304C323.158 175.183 322.367 178.346 321.591 180.858L348.343 189.124C349.471 185.474 350.478 181.355 351.388 176.832L323.94 171.304ZM321.541 181.023C321.341 181.7 321.157 182.061 321.071 182.206C320.994 182.338 320.999 182.292 321.126 182.178L339.925 202.928C344.246 199.013 346.886 194.059 348.393 188.959L321.541 181.023ZM320.849 182.435C320.368 182.895 319.931 183.145 319.45 183.311L328.592 209.777C332.976 208.262 336.875 205.852 340.201 202.671L320.849 182.435ZM318.788 183.559C318.269 183.768 317.771 183.857 317.147 183.824L315.666 211.785C320.329 212.032 324.908 211.281 329.254 209.529L318.788 183.559ZM317.177 183.826C316.835 183.807 316.633 183.762 316.536 183.735C316.444 183.71 316.41 183.69 316.402 183.686L302.767 208.142C306.821 210.402 311.2 211.538 315.635 211.783L317.177 183.826ZM316.926 183.993C316.954 184.01 317.209 184.176 317.521 184.553C317.843 184.943 318.084 185.388 318.226 185.802C318.496 186.59 318.182 186.545 318.517 184.972L291.134 179.128C290.095 183.997 289.886 189.483 291.743 194.893C293.689 200.563 297.483 204.903 302.243 207.834L316.926 183.993ZM318.623 184.423C323.461 156.29 327.943 133.975 332.058 117.357L304.879 110.627C300.533 128.178 295.92 151.236 291.028 179.677L318.623 184.423ZM332.038 117.436C336.363 100.396 339.873 87.0814 342.577 77.4428L315.618 69.8803C312.822 79.8469 309.246 93.4193 304.899 110.548L332.038 117.436ZM342.539 77.5771C345.408 67.7265 348.382 57.3199 351.46 46.3581L324.503 38.7887C321.446 49.6726 318.498 59.9915 315.656 69.7461L342.539 77.5771ZM351.939 43.6638C352.072 41.9571 352.553 40.7019 353.314 39.598L330.263 23.703C326.582 29.0408 324.525 35.0674 324.024 41.4829L351.939 43.6638ZM353.314 39.598C354.678 37.6208 356.137 36.169 357.662 35.0873L341.462 12.2495C337.064 15.3689 333.342 19.2385 330.263 23.703L353.314 39.598ZM357.473 35.2191C359.323 33.9521 361.01 33.215 362.556 32.8189L355.605 5.69549C350.593 6.97984 345.935 9.18359 341.651 12.1177L357.473 35.2191ZM363.091 32.6705C364.592 32.2216 364.734 32.5126 364.083 32.333L371.529 5.3412C365.801 3.76119 360.126 4.33228 355.07 5.84393L363.091 32.6705ZM364.083 32.333C363.614 32.2038 362.884 31.8964 362.141 31.2782C361.4 30.6614 360.978 30.0115 360.78 29.6051L385.936 17.3115C383.024 11.3513 377.964 7.11631 371.529 5.34119L364.083 32.333ZM361.004 30.0443C360.389 28.8913 360.392 28.1148 360.396 28.2483C360.397 28.3024 360.399 28.5155 360.351 28.9149C360.303 29.3123 360.212 29.8477 360.05 30.5352L387.301 36.9668C388.633 31.3238 389.383 23.7581 385.712 16.8723L361.004 30.0443ZM360.249 29.7833C356.442 42.6667 353.749 51.7548 352.168 57.0585L379.001 65.0579C380.593 59.7189 383.294 50.6021 387.101 37.7187L360.249 29.7833ZM352.168 57.0585C350.585 62.3677 349.163 67.1122 347.9 71.2934L374.703 79.3906C375.978 75.1696 377.411 70.3916 379.001 65.0579L352.168 57.0585ZM347.969 71.0703L343.527 84.934L370.192 93.4773L374.634 79.6137L347.969 71.0703ZM355.978 103.178C360.469 103.461 365.024 102.591 369.162 101.393L361.372 74.4981C360.14 74.8549 359.212 75.0513 358.552 75.1503C357.877 75.2514 357.639 75.227 357.74 75.2334L355.978 103.178ZM369.251 101.367C371.911 100.577 373.847 100.156 375.166 99.9685C376.634 99.7602 376.644 99.9452 375.799 99.7731L381.388 72.3366C374.916 71.0182 367.481 72.6847 361.284 74.5239L369.251 101.367ZM392.593 86.0548C392.593 86.4005 392.577 86.6842 392.561 86.8905C392.544 87.0994 392.524 87.2643 392.508 87.377C392.478 87.593 392.452 87.7015 392.458 87.6728C392.463 87.6516 392.485 87.5583 392.534 87.3809C392.582 87.2063 392.649 86.9767 392.741 86.6862L366.032 78.2815C365.531 79.8745 364.593 82.9497 364.593 86.0548H392.593ZM393.181 84.8749C396.088 68.104 399.342 52.7998 402.933 38.9435L375.828 31.9194C372.016 46.6307 368.608 62.6947 365.592 80.0929L393.181 84.8749ZM403.04 38.5017C403.923 34.5705 405.18 32.9949 405.864 32.3772C406.434 31.8627 407.613 31.0784 410.557 30.9285L409.133 2.96473C401.078 3.37493 393.348 5.95153 387.096 11.5987C380.958 17.1426 377.482 24.5294 375.721 32.3613L403.04 38.5017ZM409.845 30.9466C410.522 30.9466 410.489 31.0561 410.057 30.8716C409.841 30.7792 409.582 30.6364 409.318 30.435C409.055 30.2338 408.852 30.0242 408.711 29.8465L430.65 12.4489C425.204 5.5806 417.445 2.94661 409.845 2.94661V30.9466ZM408.893 30.0709C408.589 29.7036 408.305 29.2406 408.095 28.7125C407.888 28.1904 407.81 27.7463 407.787 27.4561C407.746 26.9367 407.893 27.1641 407.446 28.4181L433.819 37.8237C436.534 30.2119 437.235 20.4043 430.469 12.2245L408.893 30.0709ZM407.114 29.4803C397.352 65.7319 390.376 94.6078 386.262 115.966L413.757 121.261C417.681 100.888 424.454 72.7689 434.151 36.7615L407.114 29.4803ZM386.253 116.016C381.707 140.091 378.677 156.417 377.18 164.917L404.755 169.776C406.218 161.471 409.217 145.308 413.766 121.211L386.253 116.016ZM377.151 165.085C376.489 169.129 375.909 172.07 375.425 174.049C375.182 175.043 375.008 175.604 374.924 175.846C374.766 176.298 374.978 175.499 375.777 174.336L398.86 190.184C400.187 188.251 400.948 186.253 401.359 185.077C401.843 183.691 402.258 182.195 402.623 180.703C403.355 177.711 404.07 173.965 404.783 169.607L377.151 165.085ZM375.777 174.336C375.689 174.464 375.772 174.316 376.072 174.032C376.379 173.742 376.98 173.246 377.913 172.797L390.06 198.025C394.193 196.035 397 192.894 398.86 190.184L375.777 174.336ZM376.258 173.737C375.559 174.201 374.893 174.595 374.261 174.93L387.367 199.673C388.85 198.888 390.3 198.022 391.715 197.085L376.258 173.737ZM374.261 174.93C367.778 178.364 365.609 184.85 364.806 187.688L391.746 195.318C391.854 194.937 391.801 195.296 391.369 196.012C390.943 196.716 389.757 198.407 387.367 199.673L374.261 174.93ZM378.276 177.503H377.8V205.503H378.276V177.503ZM364.528 187.048C364.759 186.358 365.151 185.726 365.597 185.253C366.009 184.817 366.271 184.722 366.083 184.814L378.412 209.954C383.919 207.254 388.807 202.707 391.072 195.958L364.528 187.048ZM366.083 184.814C365.774 184.966 365.62 184.993 365.598 184.997C365.581 185 365.573 185 365.566 185C365.56 185 365.536 185 365.489 184.993L361.556 212.716C367.475 213.556 373.205 212.508 378.412 209.954L366.083 184.814ZM364.889 184.921C365.395 184.971 365.995 185.147 366.541 185.461C367.057 185.758 367.242 186.015 367.172 185.927L345.278 203.38C349.326 208.459 355.053 212.091 362.156 212.788L364.889 184.921ZM367.159 185.91C367.627 186.495 367.926 187.066 368.105 187.524C368.279 187.969 368.32 188.256 368.326 188.304C368.332 188.347 368.309 188.198 368.33 187.812C368.351 187.428 368.412 186.871 368.554 186.118L341.04 180.923C339.83 187.334 339.537 196.201 345.291 203.397L367.159 185.91ZM368.676 185.359C369.642 178.067 371.256 170.122 373.558 161.508L346.507 154.279C343.944 163.87 342.067 173.01 340.918 181.682L368.676 185.359ZM373.571 161.457C376.003 152.218 377.904 145.017 379.275 139.849L352.212 132.667C350.833 137.862 348.927 145.085 346.493 154.33L373.571 161.457ZM379.204 140.105C380.759 134.666 382.057 129.518 383.086 124.673L355.698 118.855C354.823 122.972 353.689 127.488 352.282 132.411L379.204 140.105ZM361.664 110.091C361.711 110.06 361.975 109.893 362.454 109.734L371.253 136.315C373.425 135.596 375.381 134.589 377.12 133.438L361.664 110.091ZM361.9 109.93C359.429 110.865 357.295 112.277 355.801 113.356L372.195 136.054C372.352 135.941 372.472 135.859 372.56 135.801C372.648 135.743 372.688 135.719 372.685 135.72C372.684 135.721 372.615 135.762 372.485 135.826C372.358 135.889 372.129 135.997 371.808 136.119L361.9 109.93ZM356.779 112.71C356.131 113.1 355.439 113.46 354.697 113.788L366.003 139.403C367.799 138.611 369.539 137.71 371.218 136.7L356.779 112.71ZM354.276 113.982C353.113 114.542 351.949 115.102 350.786 115.662L362.933 140.89C364.096 140.33 365.26 139.77 366.423 139.21L354.276 113.982ZM350.399 115.856C346.883 117.685 343.596 119.716 340.756 122.014L358.369 143.78C359.335 142.998 360.913 141.948 363.32 140.696L350.399 115.856ZM336.677 127.423L335.249 130.784L361.02 141.732L362.447 138.371L336.677 127.423ZM366.061 136.184C367.869 136.184 369.27 135.817 369.493 135.762C369.996 135.637 370.398 135.509 370.619 135.436C371.074 135.285 371.468 135.132 371.705 135.038C372.213 134.836 372.771 134.595 373.3 134.362L361.994 108.746C361.797 108.833 361.644 108.899 361.53 108.948C361.41 108.999 361.362 109.018 361.368 109.016C361.373 109.014 361.41 108.999 361.472 108.976C361.529 108.955 361.651 108.91 361.82 108.854C361.961 108.808 362.297 108.699 362.747 108.587C362.976 108.53 363.342 108.445 363.799 108.37C364.199 108.304 365.016 108.184 366.061 108.184V136.184ZM361.994 108.746C361.804 108.83 361.677 108.882 361.606 108.911C361.53 108.941 361.554 108.929 361.661 108.894L370.46 135.475C371.474 135.14 372.454 134.736 373.3 134.362L361.994 108.746ZM439.021 169.454C445.261 170.308 450.597 170.843 454.564 170.843V142.843C452.609 142.843 448.85 142.538 442.821 141.713L439.021 169.454ZM454.564 170.843C458.954 170.843 464.583 170.086 470.881 168.935L465.851 141.391C459.881 142.481 456.308 142.843 454.564 142.843V170.843ZM462.713 167.971C462.694 167.963 461.949 167.644 461.007 166.752C459.974 165.775 458.72 164.109 458.121 161.732L485.274 154.896C483.4 147.453 477.493 143.888 474.019 142.355L462.713 167.971ZM458.121 161.732C458.084 161.584 458.066 161.459 458.059 161.366C458.052 161.275 458.056 161.233 458.055 161.251L485.975 163.359C486.185 160.578 485.987 157.73 485.274 154.896L458.121 161.732ZM458.064 161.134C457.859 163.571 457.964 166.003 458.366 168.403L485.98 163.769C485.96 163.648 485.959 163.56 485.966 163.476L458.064 161.134ZM458.366 168.403C459.692 176.301 465.683 180.249 469.26 181.92L481.115 156.553C481.25 156.617 482.156 157.047 483.202 158.141C484.364 159.356 485.56 161.262 485.98 163.769L458.366 168.403ZM469.535 182.045C467.51 181.151 465.739 179.724 464.431 177.918C463.188 176.199 462.641 174.529 462.398 173.371C462.159 172.234 462.165 171.365 462.185 170.94C462.196 170.706 462.215 170.531 462.229 170.425C462.243 170.319 462.255 170.26 462.256 170.254L489.705 175.782C490.075 173.945 490.499 170.947 489.801 167.623C488.99 163.756 486.433 158.897 480.841 156.429L469.535 182.045ZM462.161 170.781C462.184 170.637 462.189 170.712 462.064 171.032C461.94 171.35 461.713 171.846 461.319 172.528L485.566 186.531C487.488 183.204 489.13 179.403 489.801 175.254L462.161 170.781ZM461.33 172.509C458.795 176.883 456.471 178.779 454.805 179.612L467.332 204.654C475.185 200.725 481.11 194.219 485.555 186.55L461.33 172.509ZM456.669 178.842C449.365 181.26 444.563 182.341 441.792 182.609L444.492 210.479C450.394 209.907 457.543 208.047 465.468 205.424L456.669 178.842ZM441.786 182.61C436.01 183.172 429.424 182.919 421.95 181.682L417.377 209.306C426.825 210.869 435.892 211.316 444.499 210.478L441.786 182.61ZM422.94 181.883C419.989 181.172 419.536 180.405 419.826 180.735C419.99 180.922 420.122 181.167 420.181 181.353C420.228 181.499 420.143 181.342 420.168 180.716L392.19 179.604C391.915 186.52 393.771 193.507 398.799 199.225C403.583 204.665 410.031 207.575 416.387 209.105L422.94 181.883ZM420.179 180.16C420.179 152.323 424.78 124.245 434.078 95.8764L407.47 87.1561C397.308 118.163 392.179 149.181 392.179 180.16H420.179ZM434.075 95.8839C437.177 86.4367 440.704 76.4776 444.659 66.004L418.464 56.1125C414.381 66.9245 410.716 77.2708 407.473 87.1486L434.075 95.8839ZM444.659 66.004C446.121 62.1314 446.826 58.0851 446.979 54.0245L418.999 52.968C418.941 54.5088 418.694 55.5039 418.464 56.1125L444.659 66.004ZM446.95 54.5506C447.173 51.5929 447.341 48.6959 447.454 45.8601L419.476 44.748C419.377 47.2337 419.229 49.7981 419.029 52.4419L446.95 54.5506ZM447.454 45.8601C447.53 43.9545 447.747 42.5591 447.993 41.5799L420.841 34.7444C420.03 37.9664 419.612 41.3322 419.476 44.748L447.454 45.8601ZM447.993 41.58C447.88 42.0325 447.573 42.9224 446.818 43.9213C446.032 44.9632 445.022 45.7703 443.975 46.2903L431.522 21.2117C425.606 24.1495 422.206 29.3229 420.841 34.7444L447.993 41.58ZM444.289 46.1294C465.662 34.8364 479.31 32.3966 487.091 34.0144L492.791 6.60063C474.978 2.89697 453.831 9.41959 431.208 21.3727L444.289 46.1294ZM489.5 34.3005C489.692 34.3066 488.715 34.3051 487.44 33.4146C486.093 32.4746 485.567 31.3521 485.455 31.0316L511.878 21.7666C510.39 17.5251 507.723 13.4268 503.468 10.4562C499.284 7.53516 494.632 6.44843 490.382 6.31445L489.5 34.3005ZM485.63 31.504C485.858 32.0852 486.166 33.3378 485.542 35.8895L512.742 42.5355C514.445 35.5646 514.436 28.275 511.702 21.2942L485.63 31.504ZM485.475 36.1767C484.91 38.7239 483.72 41.3282 481.601 44.0428L503.675 61.2692C508.113 55.5817 511.26 49.2236 512.809 42.2483L485.475 36.1767ZM481.466 44.2187C480.219 45.8705 479.111 46.443 477.816 46.7039L483.347 74.1522C491.782 72.4527 498.712 67.8438 503.81 61.0934L481.466 44.2187ZM475.591 47.3477C469.836 49.5434 464.593 51.6425 461.859 53.3134L476.46 77.2052C476.172 77.3808 476.146 77.3706 476.631 77.141C477.046 76.9449 477.656 76.6723 478.5 76.3154C480.186 75.602 482.526 74.6706 485.572 73.5084L475.591 47.3477ZM461.65 53.4438C456.666 56.6114 452.823 61.0645 450.519 66.6107L476.377 77.3515C476.402 77.2921 476.418 77.2658 476.42 77.2621C476.422 77.2589 476.42 77.2619 476.418 77.2649C476.415 77.2678 476.425 77.2554 476.457 77.2277C476.49 77.1995 476.556 77.1466 476.669 77.0748L461.65 53.4438ZM450.83 65.9167C449.309 69.0821 447.889 72.1186 446.572 75.0251L472.075 86.5818C473.297 83.8868 474.627 81.0418 476.067 78.0455L450.83 65.9167ZM446.572 75.0251C444.766 79.0109 443.527 83.2096 442.812 87.5677L470.442 92.104C470.784 90.0204 471.343 88.1975 472.075 86.5818L446.572 75.0251ZM442.757 87.9313L442.122 92.5525L469.862 96.3616L470.497 91.7404L442.757 87.9313ZM448.553 106.317C453.962 109.709 459.92 110.364 465.327 109.568L461.252 81.8665C461.049 81.8963 461.238 81.8407 461.706 81.9216C462.211 82.0088 462.83 82.2197 463.431 82.5968L448.553 106.317ZM465.892 109.473C468.795 108.924 471.417 108.448 473.763 108.043L468.998 80.4512C466.478 80.8864 463.707 81.3902 460.687 81.9613L465.892 109.473ZM474.397 107.918C474.716 107.848 474.95 107.808 475.106 107.786C475.264 107.764 475.317 107.765 475.278 107.766C475.241 107.767 475.074 107.771 474.802 107.744C474.529 107.716 474.11 107.654 473.587 107.505L481.23 80.5686C476.481 79.2212 471.797 79.8182 468.363 80.5759L474.397 107.918ZM473.825 107.57C471.32 106.907 468.916 105.392 467.188 103.104C465.62 101.028 465.147 99.0355 464.993 98.0184C464.731 96.2843 465.122 95.5792 464.784 96.9208L491.937 103.756C492.551 101.317 493.258 97.6711 492.679 93.8365C492.367 91.7691 491.576 88.9361 489.532 86.2297C487.328 83.3116 484.29 81.3766 480.992 80.5034L473.825 107.57ZM464.724 97.1697C464.232 99.2858 463.131 102.264 461.054 106.211L485.831 119.253C488.619 113.957 490.797 108.673 491.997 103.507L464.724 97.1697ZM460.938 106.436C459.886 108.526 458.703 109.557 457.345 110.215L469.552 135.414C476.866 131.871 482.346 126.18 485.947 119.028L460.938 106.436ZM459.994 109.247C457.267 109.942 454.562 110.692 452.569 111.484L462.906 137.506C462.848 137.529 463.116 137.424 463.91 137.19C464.644 136.975 465.63 136.706 466.903 136.382L459.994 109.247ZM453.785 111.064C452.875 111.332 452.277 111.5 451.932 111.592L459.1 138.659C459.813 138.47 460.696 138.218 461.689 137.926L453.785 111.064ZM452.914 111.369C453.184 111.318 453.273 111.314 452.999 111.347C452.786 111.373 452.458 111.41 451.991 111.456C451.059 111.549 449.756 111.663 448.051 111.8L450.29 139.71C453.427 139.459 456.458 139.195 458.118 138.881L452.914 111.369ZM436.374 120.077C431.291 131.532 427.691 141.505 426.33 149.434L453.926 154.171C454.681 149.776 457.108 142.385 461.968 131.433L436.374 120.077ZM426.321 149.485C426.048 151.111 425.614 154.208 426.307 157.512C426.675 159.265 427.612 162.323 430.262 165.068C433.296 168.213 437.25 169.583 440.921 169.583V141.583C444.117 141.583 447.68 142.796 450.411 145.625C452.756 148.056 453.475 150.641 453.711 151.764C454.14 153.807 453.785 155.014 453.935 154.119L426.321 149.485ZM569.54 51.0965C569.753 51.2459 570.291 51.5656 570.654 53.4345L598.141 48.0966C596.6 40.1629 592.591 33.0606 585.612 28.1687L569.54 51.0965ZM570.523 48.8944C568.392 64.6956 566.474 80.4284 564.769 96.0928L592.604 99.123C594.283 83.6992 596.173 68.2038 598.272 52.6367L570.523 48.8944ZM564.77 96.0791C563.09 111.372 561.474 124.125 559.926 134.377L587.612 138.559C589.236 127.806 590.898 114.652 592.603 99.1366L564.77 96.0791ZM559.93 134.35C558.339 144.742 557.202 152.684 556.541 158.082L584.333 161.486C584.941 156.522 586.026 148.919 587.607 138.587L559.93 134.35ZM556.51 158.363C556 163.357 555.388 168.352 554.674 173.348L582.393 177.309C583.16 171.942 583.817 166.575 584.365 161.206L556.51 158.363ZM554.849 172.375L553.897 176.787L581.267 182.693L582.219 178.281L554.849 172.375ZM553.712 177.835C553.515 179.266 553.324 180.526 553.14 181.623L580.754 186.258C580.993 184.834 581.225 183.294 581.452 181.644L553.712 177.835ZM553.104 181.85C552.882 183.318 552.662 184.851 552.443 186.447L580.182 190.256C580.386 188.772 580.589 187.364 580.79 186.032L553.104 181.85ZM554.633 180.633C554.399 180.987 554.238 181.154 554.182 181.208C554.132 181.257 554.158 181.222 554.26 181.165C554.365 181.107 554.463 181.073 554.516 181.06C554.563 181.048 554.49 181.074 554.256 181.074V209.074C564.351 209.074 572.619 204.201 577.993 196.07L554.633 180.633ZM554.256 181.074C553.145 181.074 552.631 180.89 552.474 180.824C552.357 180.774 552.209 180.699 551.961 180.414L530.851 198.81C537.012 205.879 545.344 209.074 554.256 209.074V181.074ZM551.45 179.859C552.58 181.023 553.155 182.188 553.429 182.939C553.69 183.655 553.707 184.066 553.699 183.971C553.693 183.891 553.676 183.528 553.742 182.81C553.806 182.104 553.939 181.171 554.179 179.983L526.73 174.455C525.965 178.255 525.486 182.265 525.782 186.116C526.067 189.829 527.213 195.092 531.362 199.365L551.45 179.859ZM554.156 180.093C554.922 176.444 555.283 172.308 555.401 167.934L527.411 167.179C527.318 170.647 527.044 172.953 526.753 174.344L554.156 180.093ZM555.387 168.285C555.595 164.292 555.799 161.07 555.997 158.583L528.085 156.364C527.859 159.199 527.64 162.698 527.425 166.828L555.387 168.285ZM556.041 157.474V157.054H528.041V157.474H556.041ZM535.926 144.459C531.345 146.684 527.226 149.619 523.609 153.211L543.339 173.079C544.798 171.63 546.391 170.504 548.155 169.648L535.926 144.459ZM523.897 152.934C521.49 155.191 519.438 157.154 518.341 158.365L539.089 177.168C539.077 177.18 539.348 176.893 540.133 176.13C540.846 175.438 541.812 174.519 543.052 173.357L523.897 152.934ZM519.45 157.271C519.924 156.853 520.33 156.589 520.587 156.44C520.844 156.291 521 156.229 521.008 156.226L531.345 182.248C533.419 181.424 535.798 180.188 537.98 178.262L519.45 157.271ZM522.593 155.703C521.853 155.899 521.345 156.004 521.035 156.055L525.607 183.679C526.99 183.45 528.385 183.134 529.761 182.77L522.593 155.703ZM522.348 155.901C519.79 156.079 514.079 156.697 509.577 160.956L528.816 181.299C527.108 182.915 525.458 183.497 524.874 183.676C524.234 183.872 523.961 183.856 524.294 183.833L522.348 155.901ZM506.294 165.693C503.396 172.574 500.9 177.308 498.879 180.292C497.879 181.769 497.184 182.534 496.846 182.854C496.474 183.206 496.883 182.69 498.127 182.261L507.269 208.726C514.184 206.338 518.933 200.615 522.064 195.991C525.543 190.854 528.863 184.244 532.099 176.562L506.294 165.693ZM497.377 182.544C497.037 182.684 496.864 182.703 496.824 182.707C496.792 182.71 496.739 182.714 496.613 182.685L490.381 209.983C496.422 211.362 502.432 210.739 508.019 208.443L497.377 182.544ZM496.012 182.562C496.673 182.682 497.325 182.91 497.917 183.227C498.5 183.539 498.911 183.875 499.164 184.123C499.625 184.573 499.481 184.643 499.07 183.684L473.329 194.7C476.053 201.067 481.39 208.354 490.982 210.106L496.012 182.562ZM497.102 180.409C498.334 181.938 498.375 183.057 498.275 182.439C498.191 181.921 498.094 180.679 498.258 178.458C498.586 174.003 499.811 167.422 502.252 158.399L475.223 151.087C472.588 160.829 470.851 169.372 470.334 176.4C470.074 179.92 470.083 183.509 470.634 186.912C471.169 190.216 472.373 194.345 475.297 197.975L497.102 180.409ZM502.231 158.475C504.847 149.016 508.627 137.493 513.623 123.847L487.331 114.22C482.174 128.302 478.128 140.585 475.244 151.011L502.231 158.475ZM513.607 123.892C518.701 110.126 523.538 98.286 528.112 88.3268L502.667 76.641C497.722 87.4072 492.617 99.9333 487.347 114.175L513.607 123.892ZM528.104 88.3423C537.998 66.8687 548.695 49.1396 560.092 34.9596L538.267 17.4185C525.128 33.7666 513.298 53.5674 502.674 76.6255L528.104 88.3423ZM555.997 38.417C558.163 37.2094 560.467 35.8696 562.903 34.4031L548.464 10.413C546.248 11.7472 544.215 12.9281 542.362 13.961L555.997 38.417ZM563.412 34.0816C563.808 33.8193 564 33.7498 563.987 33.7547C563.978 33.7579 563.919 33.779 563.813 33.8022C563.705 33.8256 563.561 33.8486 563.386 33.8596L561.624 5.91513C556.412 6.24378 551.812 8.18087 547.955 10.7345L563.412 34.0816ZM563.346 33.8621C563.656 33.8435 564.197 33.8679 565.073 34.1705L574.215 7.70486C570.226 6.32701 566.008 5.6512 561.664 5.91268L563.346 33.8621ZM565.073 34.1705C565.676 34.3786 565.884 34.571 565.966 34.6525L585.696 14.7848C582.394 11.5054 578.477 9.17716 574.215 7.70485L565.073 34.1705ZM565.922 34.6082C565.971 34.6573 565.822 34.5197 565.647 34.172C565.463 33.8086 565.342 33.3979 565.297 33.015C565.209 32.2649 565.487 32.4027 564.841 33.8171L590.311 45.448C592.415 40.8409 593.777 35.4822 593.107 29.7609C592.411 23.8141 589.668 18.7645 585.741 14.8292L565.922 34.6082ZM530.092 91.2994C527.914 99.5375 525.748 107.114 523.596 114.036L550.333 122.351C552.622 114.989 554.898 107.021 557.162 98.4549L530.092 91.2994ZM523.619 113.96C521.381 121.017 519.452 127.259 517.837 132.678L544.67 140.678C546.227 135.455 548.105 129.374 550.309 122.426L523.619 113.96ZM531.956 150.661L544.489 150.03L543.083 122.066L530.55 122.696L531.956 150.661ZM557.724 137.364C558.559 128.517 559.498 119.741 560.542 111.037L532.741 107.705C531.669 116.645 530.705 125.654 529.848 134.732L557.724 137.364ZM560.542 111.037C561.606 102.16 562.617 93.2831 563.575 84.4057L535.736 81.4023C534.79 90.1696 533.792 98.937 532.741 107.705L560.542 111.037ZM537.151 76.6081L531.123 88.5813L556.132 101.173L562.16 89.1999L537.151 76.6081ZM539.344 150.888C541.713 150.888 544.065 150.664 546.388 150.224L541.184 122.712C540.546 122.833 539.936 122.888 539.344 122.888V150.888ZM557.786 136.468V136.258H529.786V136.468H557.786ZM542.367 122.33C540.922 122.477 539.567 122.627 538.305 122.779L541.651 150.578C542.717 150.45 543.9 150.319 545.204 150.186L542.367 122.33ZM538.305 122.779C537.952 122.821 537.554 122.872 537.17 122.931C536.982 122.959 536.707 123.004 536.395 123.064C536.23 123.097 535.462 123.242 534.548 123.545C534.29 123.63 532.813 124.1 531.191 125.174C530.467 125.653 528.393 127.092 526.808 129.82C524.764 133.338 523.998 138.366 526.408 143.154C528.254 146.822 531.114 148.539 532.075 149.077C533.31 149.769 534.378 150.118 534.894 150.274C535.963 150.596 536.835 150.715 537.129 150.754C538.244 150.902 539.26 150.888 539.344 150.888V122.888C539.346 122.888 539.442 122.888 539.598 122.893C539.667 122.896 540.157 122.91 540.805 122.996C541.066 123.031 541.912 123.145 542.963 123.462C543.47 123.614 544.531 123.961 545.76 124.649C546.716 125.185 549.572 126.899 551.417 130.563C553.826 135.348 553.06 140.373 551.018 143.887C549.435 146.611 547.364 148.047 546.647 148.522C545.036 149.588 543.578 150.05 543.347 150.127C542.485 150.412 541.8 150.538 541.747 150.548C541.548 150.587 541.415 150.607 541.399 150.609C541.358 150.616 541.423 150.605 541.651 150.578L538.305 122.779ZM665.688 95.7865C665.31 101.172 664.549 106.738 663.391 112.488L690.84 118.017C692.22 111.164 693.151 104.406 693.619 97.7488L665.688 95.7865ZM663.348 112.711C662.343 118.151 660.837 123.475 658.821 128.691L684.939 138.783C687.577 131.957 689.56 124.957 690.883 117.794L663.348 112.711ZM658.745 128.893C656.787 134.203 654.409 139.327 651.608 144.272L675.971 158.072C679.516 151.814 682.532 145.315 685.015 138.582L658.745 128.893ZM651.51 144.448C648.814 149.372 645.822 153.874 642.544 157.973L664.412 175.46C668.749 170.036 672.631 164.175 676.069 157.896L651.51 144.448ZM642.544 157.973C639.393 161.913 636.17 165.032 632.915 167.45L649.611 189.928C655.027 185.905 659.948 181.042 664.412 175.46L642.544 157.973ZM632.636 167.663C625.522 173.229 620.838 173.642 617.589 172.855L610.998 200.068C625.094 203.482 638.389 198.714 649.89 189.715L632.636 167.663ZM601.074 181.853C600.519 183.444 600.053 184.068 599.964 184.175C599.933 184.212 600 184.124 600.186 183.989C600.378 183.85 600.623 183.714 600.894 183.615L610.56 209.893C619.76 206.51 624.842 198.733 627.514 191.069L601.074 181.853ZM600.348 183.829C600.19 183.894 600.109 183.912 600.099 183.914C600.092 183.916 600.122 183.909 600.175 183.909C600.228 183.909 600.258 183.916 600.25 183.914C600.24 183.912 600.16 183.894 600.001 183.829L589.243 209.679C596.388 212.653 603.962 212.653 611.106 209.679L600.348 183.829ZM599.703 183.708C599.391 183.587 598.285 183.058 596.697 180.712L573.511 196.411C577.423 202.188 582.662 207.12 589.542 209.8L599.703 183.708ZM596.697 180.712C596.054 179.764 594.979 177.317 594.979 171.967H566.979C566.979 180.622 568.654 189.238 573.511 196.411L596.697 180.712ZM594.979 171.967C594.979 165.31 595.324 158.492 596.021 151.511L568.159 148.732C567.375 156.596 566.979 164.342 566.979 171.967H594.979ZM596.021 151.511C596.725 144.451 597.677 137.696 598.871 131.242L571.337 126.15C569.993 133.42 568.935 140.949 568.159 148.732L596.021 151.511ZM598.889 131.138C600.816 120.263 603.184 110.144 605.978 100.764L579.143 92.7714C576.014 103.277 573.411 114.443 571.319 126.254L598.889 131.138ZM605.934 100.908C612.891 78.4353 617.269 61.3945 618.382 50.7512L590.534 47.8391C589.743 55.4006 586.189 70.0081 579.186 92.6272L605.934 100.908ZM618.37 50.8651C618.999 45.2917 619.83 41.4283 620.665 38.9412C621.601 36.1533 622.052 36.5613 620.781 37.5709L603.364 15.6474C598.392 19.5978 595.723 25.2572 594.121 30.0313C592.417 35.1061 591.292 41.1154 590.546 47.7252L618.37 50.8651ZM620.657 37.6686C625.048 34.2603 627.215 34.3367 627.755 34.4054L631.291 6.62965C620.833 5.29807 611.366 9.43549 603.488 15.5498L620.657 37.6686ZM627.755 34.4054C631.344 34.8624 634.35 35.9604 636.968 37.6114L651.902 13.9265C645.637 9.97596 638.701 7.57309 631.291 6.62965L627.755 34.4054ZM636.945 37.5968C642.298 40.9864 649.016 47.3443 657.005 57.6583L679.141 40.5119C670.208 28.9801 661.168 19.794 651.926 13.9411L636.945 37.5968ZM657.044 57.7084C663.572 66.0582 667.097 78.1201 665.698 95.6543L693.609 97.881C695.383 75.6447 691.187 55.9182 679.102 40.4617L657.044 57.7084ZM625.141 171.388C631.265 167.254 636.612 162.761 640.894 157.823L619.739 139.48C617.464 142.104 614.138 145.033 609.475 148.181L625.141 171.388ZM640.915 157.799C644.22 153.969 647.295 150.51 650.141 147.414L629.529 128.463C626.452 131.809 623.181 135.491 619.718 139.504L640.915 157.799ZM651.007 146.376C656.809 138.693 660.876 129.811 663.392 119.985L636.266 113.041C634.552 119.739 631.956 125.141 628.663 129.501L651.007 146.376ZM663.393 119.98C668.847 98.642 666.04 78.6794 650.236 64.6592L631.654 85.6047C637.003 90.3494 640.118 97.9741 636.265 113.046L663.393 119.98ZM650.698 65.0879C648.742 63.1885 646.053 60.8292 642.802 58.103L624.811 79.5576C627.905 82.1528 629.976 83.9946 631.192 85.176L650.698 65.0879ZM620.513 64.4381C618.773 69.7059 617.484 75.1695 616.632 80.8131L644.318 84.9949C644.946 80.8359 645.879 76.917 647.1 73.2225L620.513 64.4381ZM616.591 81.1065C616.024 85.4822 615.226 89.7017 614.202 93.77L641.355 100.606C642.657 95.4314 643.657 90.1283 644.359 84.7015L616.591 81.1065ZM614.14 94.0274L609.856 112.512L637.134 118.833L641.417 100.348L614.14 94.0274ZM609.704 113.261L606.214 133.216L633.795 138.04L637.286 118.085L609.704 113.261ZM606.045 134.574C605.861 137.008 605.587 139.356 605.227 141.622L632.879 146.018C633.365 142.963 633.726 139.85 633.965 136.682L606.045 134.574ZM605.246 141.503C604.778 144.293 604.374 147.202 604.031 150.226L631.853 153.378C632.145 150.801 632.482 148.388 632.86 146.137L605.246 141.503ZM603.987 150.693L603.352 158.675L631.264 160.894L631.898 152.912L603.987 150.693Z" fill="black" mask="url(#path-1-outside-1_1440_18638)"/>
<defs>
<linearGradient id="paint0_linear_1440_18638" x1="347" y1="14" x2="347" y2="199" gradientUnits="userSpaceOnUse">
<stop stop-color="#F9F1DE"/>
<stop offset="1" stop-color="#FF8488"/>
</linearGradient>
<linearGradient id="paint1_linear_1440_18638" x1="347" y1="14" x2="347" y2="199" gradientUnits="userSpaceOnUse">
<stop stop-color="#F9F1DE"/>
<stop offset="1" stop-color="#FF8488"/>
</linearGradient>
<linearGradient id="paint2_linear_1440_18638" x1="347" y1="14" x2="347" y2="199" gradientUnits="userSpaceOnUse">
<stop stop-color="#F9F1DE"/>
<stop offset="1" stop-color="#FF8488"/>
</linearGradient>
<linearGradient id="paint3_linear_1440_18638" x1="347" y1="14" x2="347" y2="199" gradientUnits="userSpaceOnUse">
<stop stop-color="#F9F1DE"/>
<stop offset="1" stop-color="#FF8488"/>
</linearGradient>
<linearGradient id="paint4_linear_1440_18638" x1="347" y1="14" x2="347" y2="199" gradientUnits="userSpaceOnUse">
<stop stop-color="#F9F1DE"/>
<stop offset="1" stop-color="#FF8488"/>
</linearGradient>
<linearGradient id="paint5_linear_1440_18638" x1="347" y1="14" x2="347" y2="199" gradientUnits="userSpaceOnUse">
<stop stop-color="#F9F1DE"/>
<stop offset="1" stop-color="#FF8488"/>
</linearGradient>
<linearGradient id="paint6_linear_1440_18638" x1="347" y1="14" x2="347" y2="199" gradientUnits="userSpaceOnUse">
<stop stop-color="#F9F1DE"/>
<stop offset="1" stop-color="#FF8488"/>
</linearGradient>
</defs>
</svg>
