<svg width="175" height="141" viewBox="0 0 175 141" fill="none" xmlns="http://www.w3.org/2000/svg">
<path d="M67.0279 105C67.0089 104.763 66.9202 104.579 66.7615 104.446C66.6053 104.313 66.3674 104.247 66.0478 104.247C65.8442 104.247 65.6773 104.272 65.5471 104.322C65.4192 104.369 65.3245 104.434 65.263 104.517C65.2014 104.6 65.1694 104.695 65.1671 104.801C65.1623 104.889 65.1777 104.968 65.2132 105.039C65.2511 105.108 65.3103 105.17 65.3908 105.227C65.4713 105.282 65.5743 105.331 65.6998 105.376C65.8252 105.421 65.9744 105.462 66.1472 105.497L66.7438 105.625C67.1462 105.71 67.4907 105.823 67.7772 105.962C68.0636 106.102 68.298 106.267 68.4803 106.456C68.6626 106.643 68.7963 106.854 68.8816 107.088C68.9692 107.322 69.0141 107.578 69.0165 107.855C69.0141 108.333 68.8946 108.738 68.6578 109.07C68.4211 109.401 68.0826 109.653 67.6422 109.826C67.2042 109.999 66.6775 110.085 66.062 110.085C65.4299 110.085 64.8783 109.992 64.4071 109.805C63.9384 109.618 63.5738 109.33 63.3134 108.942C63.0553 108.551 62.9251 108.052 62.9228 107.443H64.7978C64.8096 107.666 64.8652 107.853 64.9647 108.004C65.0641 108.156 65.2038 108.271 65.3837 108.349C65.566 108.427 65.7826 108.466 66.0336 108.466C66.2443 108.466 66.4206 108.44 66.5627 108.388C66.7047 108.336 66.8124 108.263 66.8858 108.171C66.9592 108.079 66.9971 107.973 66.9995 107.855C66.9971 107.744 66.9604 107.647 66.8894 107.564C66.8207 107.479 66.7071 107.403 66.5485 107.337C66.3899 107.268 66.1756 107.204 65.9057 107.145L65.1813 106.989C64.5373 106.849 64.0295 106.616 63.6578 106.289C63.2885 105.96 63.1051 105.511 63.1074 104.943C63.1051 104.482 63.2282 104.078 63.4767 103.732C63.7277 103.384 64.0745 103.113 64.5172 102.919C64.9623 102.725 65.4725 102.628 66.0478 102.628C66.6349 102.628 67.1427 102.726 67.5712 102.923C67.9997 103.119 68.33 103.396 68.562 103.754C68.7963 104.109 68.9147 104.524 68.9171 105H67.0279ZM71.3736 110H69.2429L71.6435 102.727H74.3423L76.7429 110H74.6122L73.0213 104.73H72.9645L71.3736 110ZM70.9759 107.131H74.9815V108.608H70.9759V107.131ZM78.3773 102.727L79.8688 107.855H79.9256L81.4171 102.727H83.6472L81.2466 110H78.5478L76.1472 102.727H78.3773ZM84.3477 110V102.727H89.5891V104.318H86.3221V105.568H89.3192V107.159H86.3221V108.409H89.5749V110H84.3477ZM96.1401 102.727V110H94.1657V104.545H94.123L92.5321 105.497V103.821L94.3219 102.727H96.1401ZM100.801 110.199C100.14 110.196 99.5699 110.044 99.0893 109.741C98.6087 109.438 98.2382 109.001 97.9778 108.43C97.7174 107.86 97.5884 107.176 97.5907 106.378C97.5931 105.578 97.7233 104.898 97.9814 104.339C98.2418 103.781 98.6111 103.356 99.0893 103.065C99.5699 102.773 100.14 102.628 100.801 102.628C101.461 102.628 102.032 102.775 102.513 103.068C102.993 103.359 103.364 103.784 103.624 104.343C103.885 104.902 104.014 105.58 104.011 106.378C104.011 107.18 103.881 107.867 103.621 108.438C103.36 109.008 102.99 109.445 102.509 109.748C102.031 110.049 101.461 110.199 100.801 110.199ZM100.801 108.594C101.142 108.594 101.421 108.416 101.639 108.061C101.859 107.704 101.968 107.143 101.966 106.378C101.966 105.878 101.916 105.47 101.817 105.153C101.717 104.835 101.58 104.601 101.405 104.45C101.229 104.296 101.028 104.219 100.801 104.219C100.46 104.219 100.182 104.392 99.9664 104.737C99.751 105.083 99.6409 105.63 99.6362 106.378C99.6338 106.887 99.6824 107.306 99.7818 107.635C99.8812 107.962 100.019 108.203 100.194 108.359C100.371 108.516 100.574 108.594 100.801 108.594ZM109.1 108.636V108.253C109.1 107.945 109.166 107.661 109.299 107.401C109.434 107.14 109.629 106.931 109.885 106.772C110.14 106.613 110.452 106.534 110.819 106.534C111.195 106.534 111.511 106.612 111.767 106.768C112.025 106.925 112.22 107.133 112.353 107.393C112.485 107.654 112.552 107.94 112.552 108.253V108.636C112.552 108.944 112.484 109.228 112.349 109.489C112.217 109.749 112.021 109.959 111.763 110.117C111.505 110.276 111.19 110.355 110.819 110.355C110.447 110.355 110.133 110.276 109.878 110.117C109.622 109.959 109.428 109.749 109.295 109.489C109.165 109.228 109.1 108.944 109.1 108.636ZM110.336 108.253V108.636C110.336 108.771 110.369 108.905 110.435 109.038C110.504 109.168 110.632 109.233 110.819 109.233C111.015 109.233 111.144 109.169 111.206 109.041C111.27 108.913 111.302 108.778 111.302 108.636V108.253C111.302 108.111 111.272 107.973 111.213 107.841C111.154 107.708 111.022 107.642 110.819 107.642C110.632 107.642 110.504 107.708 110.435 107.841C110.369 107.973 110.336 108.111 110.336 108.253ZM105.293 104.474V104.091C105.293 103.778 105.361 103.492 105.496 103.232C105.633 102.971 105.829 102.763 106.085 102.607C106.341 102.45 106.65 102.372 107.012 102.372C107.388 102.372 107.704 102.45 107.96 102.607C108.218 102.763 108.413 102.971 108.546 103.232C108.679 103.492 108.745 103.778 108.745 104.091V104.474C108.745 104.787 108.677 105.072 108.542 105.33C108.41 105.588 108.215 105.794 107.956 105.948C107.698 106.102 107.384 106.179 107.012 106.179C106.64 106.179 106.327 106.101 106.071 105.945C105.815 105.788 105.621 105.581 105.488 105.323C105.358 105.065 105.293 104.782 105.293 104.474ZM106.543 104.091V104.474C106.543 104.616 106.576 104.751 106.643 104.879C106.709 105.007 106.832 105.071 107.012 105.071C107.208 105.071 107.337 105.007 107.399 104.879C107.463 104.751 107.495 104.616 107.495 104.474V104.091C107.495 103.949 107.465 103.812 107.406 103.679C107.347 103.546 107.215 103.48 107.012 103.48C106.825 103.48 106.699 103.549 106.635 103.686C106.574 103.821 106.543 103.956 106.543 104.091ZM105.897 110L110.897 102.727H111.905L106.905 110H105.897Z" fill="#303030"/>
<rect x="12" y="25" width="62" height="62" rx="6" fill="#F1F1F1"/>
<line x1="35.5762" y1="55.003" x2="35.5005" y2="67.512" stroke="#303030"/>
<line x1="35.7246" y1="55.5" x2="31.0008" y2="55.5" stroke="#303030"/>
<line x1="54.7246" y1="55.5" x2="50.0008" y2="55.5" stroke="#303030"/>
<line x1="50.5762" y1="55.003" x2="50.5005" y2="67.512" stroke="#303030"/>
<line x1="51" y1="67.5" x2="35" y2="67.5" stroke="#303030"/>
<line x1="47" y1="52.5" x2="39" y2="52.5" stroke="#303030"/>
<line x1="40" y1="48.5" x2="31" y2="48.5" stroke="#303030"/>
<line x1="55" y1="48.4922" x2="46" y2="48.4922" stroke="#303030"/>
<line x1="39.5" y1="49" x2="39.5" y2="52.1" stroke="#303030"/>
<line x1="46.5" y1="49" x2="46.5" y2="52.1" stroke="#303030"/>
<line x1="31.5" y1="49" x2="31.5" y2="56" stroke="#303030"/>
<line x1="54.5" y1="49" x2="54.5" y2="56" stroke="#303030"/>
<rect x="101" y="25" width="62" height="62" rx="6" fill="#F1F1F1"/>
<line x1="124.5" y1="66" x2="124.5" y2="46" stroke="#303030"/>
<line x1="140.5" y1="66" x2="140.5" y2="46" stroke="#303030"/>
<line x1="133.5" y1="66" x2="133.5" y2="53" stroke="#303030"/>
<line x1="131.5" y1="66" x2="131.5" y2="53" stroke="#303030"/>
<line x1="131" y1="52.5" x2="134" y2="52.5" stroke="#303030"/>
<line x1="124" y1="65.5" x2="132" y2="65.5" stroke="#303030"/>
<line x1="133" y1="65.5" x2="141" y2="65.5" stroke="#303030"/>
<line x1="124" y1="46.5" x2="140" y2="46.5" stroke="#303030"/>
<line x1="87.5" y1="54" x2="87.5" y2="63" stroke="black"/>
<line x1="92" y1="58.5" x2="83" y2="58.5" stroke="black"/>
</svg>
