<svg width="175" height="141" viewBox="0 0 175 141" fill="none" xmlns="http://www.w3.org/2000/svg">
<rect width="175" height="40" rx="6" fill="#F1F1F1"/>
<path d="M35.9219 24V16H38.7891C39.3516 16 39.8164 16.0951 40.1836 16.2852C40.5508 16.4727 40.8242 16.7266 41.0039 17.0469C41.1836 17.3646 41.2734 17.7201 41.2734 18.1133C41.2734 18.4518 41.2122 18.7344 41.0898 18.9609C40.9701 19.1849 40.8099 19.3646 40.6094 19.5C40.4089 19.6328 40.1901 19.7305 39.9531 19.793V19.8711C40.2083 19.8867 40.4609 19.9727 40.7109 20.1289C40.9609 20.2852 41.1693 20.5091 41.3359 20.8008C41.5026 21.0898 41.5859 21.4427 41.5859 21.8594C41.5859 22.2656 41.4922 22.6302 41.3047 22.9531C41.1198 23.2734 40.8294 23.5286 40.4336 23.7187C40.0378 23.9062 39.5273 24 38.9023 24H35.9219ZM37.0117 23.0547H38.8438C39.4505 23.0547 39.8828 22.9375 40.1406 22.7031C40.3984 22.4661 40.5273 22.1758 40.5273 21.832C40.5273 21.569 40.4609 21.3281 40.3281 21.1094C40.1953 20.888 40.0065 20.7122 39.7617 20.582C39.5169 20.4492 39.2266 20.3828 38.8906 20.3828H37.0117V23.0547ZM37.0117 19.4883H38.7188C39 19.4883 39.2539 19.4336 39.4805 19.3242C39.707 19.2148 39.8867 19.0612 40.0195 18.8633C40.1549 18.6628 40.2227 18.4284 40.2227 18.1602C40.2227 17.819 40.1029 17.5312 39.8633 17.2969C39.6263 17.0625 39.2552 16.9453 38.75 16.9453H37.0117V19.4883ZM46.7813 21.5312V18H47.8281V24H46.793V22.9727H46.7305C46.5898 23.2852 46.3698 23.5482 46.0703 23.7617C45.7708 23.9727 45.3945 24.0781 44.9414 24.0781C44.5638 24.0781 44.2279 23.9948 43.9336 23.8281C43.6393 23.6589 43.4076 23.4076 43.2383 23.0742C43.0716 22.7383 42.9883 22.3177 42.9883 21.8125V18H44.0352V21.7109C44.0352 22.1354 44.1536 22.474 44.3906 22.7266C44.6276 22.9766 44.931 23.1016 45.3008 23.1016C45.5273 23.1016 45.7539 23.0456 45.9805 22.9336C46.207 22.819 46.3971 22.6458 46.5508 22.4141C46.7044 22.1823 46.7813 21.888 46.7813 21.5312ZM50.123 26.25C49.9564 26.25 49.8066 26.237 49.6738 26.2109C49.541 26.1849 49.446 26.1576 49.3887 26.1289L49.6465 25.2461C49.8652 25.3034 50.0592 25.3255 50.2285 25.3125C50.3978 25.3021 50.5475 25.2331 50.6777 25.1055C50.8105 24.9779 50.929 24.7721 51.0332 24.4883L51.1934 24.0547L48.9863 18H50.1113L51.6973 22.7187H51.7598L53.3496 18H54.4785L51.9668 24.8359C51.8522 25.1484 51.7077 25.4102 51.5332 25.6211C51.3613 25.832 51.1582 25.9896 50.9238 26.0938C50.6895 26.1979 50.4225 26.25 50.123 26.25ZM61.5498 16V24H60.46V17.1133H60.4131L58.4795 18.3867V17.3164L60.4756 16H61.5498Z" fill="#303030"/>
<line x1="14.5488" y1="17.9327" x2="14.5" y2="26.003" stroke="#303030"/>
<line x1="14.0488" y1="18.4297" x2="11.0012" y2="18.4297" stroke="#303030"/>
<line x1="27.002" y1="18.4297" x2="23.9543" y2="18.4297" stroke="#303030"/>
<line x1="26.5" y1="15" x2="26.5" y2="18" stroke="#303030"/>
<line x1="11.5" y1="15" x2="11.5" y2="18" stroke="#303030"/>
<line x1="23.6914" y1="17.9297" x2="23.6914" y2="25.9961" stroke="#303030"/>
<line x1="23.3809" y1="25.5" x2="14.9999" y2="25.5" stroke="#303030"/>
<line x1="22" y1="15.5" x2="16" y2="15.5" stroke="#303030"/>
<line x1="17" y1="13.5" x2="11" y2="13.5" stroke="#303030"/>
<line x1="27" y1="13.5" x2="21" y2="13.5" stroke="#303030"/>
<line x1="16.5" y1="14" x2="16.5" y2="16" stroke="#303030"/>
<line x1="21.5" y1="14" x2="21.5" y2="16" stroke="#303030"/>
<line x1="26.5" y1="14" x2="26.5" y2="16" stroke="#303030"/>
<line x1="11.5" y1="14" x2="11.5" y2="16" stroke="#303030"/>
<rect y="50" width="175" height="40" rx="6" fill="#F1F1F1"/>
<path d="M35.9219 74V66H38.7891C39.3516 66 39.8164 66.0951 40.1836 66.2852C40.5508 66.4727 40.8242 66.7266 41.0039 67.0469C41.1836 67.3646 41.2734 67.7201 41.2734 68.1133C41.2734 68.4518 41.2122 68.7344 41.0898 68.9609C40.9701 69.1849 40.8099 69.3646 40.6094 69.5C40.4089 69.6328 40.1901 69.7305 39.9531 69.793V69.8711C40.2083 69.8867 40.4609 69.9727 40.7109 70.1289C40.9609 70.2852 41.1693 70.5091 41.3359 70.8008C41.5026 71.0898 41.5859 71.4427 41.5859 71.8594C41.5859 72.2656 41.4922 72.6302 41.3047 72.9531C41.1198 73.2734 40.8294 73.5286 40.4336 73.7187C40.0378 73.9062 39.5273 74 38.9023 74H35.9219ZM37.0117 73.0547H38.8438C39.4505 73.0547 39.8828 72.9375 40.1406 72.7031C40.3984 72.4661 40.5273 72.1758 40.5273 71.832C40.5273 71.569 40.4609 71.3281 40.3281 71.1094C40.1953 70.888 40.0065 70.7122 39.7617 70.582C39.5169 70.4492 39.2266 70.3828 38.8906 70.3828H37.0117V73.0547ZM37.0117 69.4883H38.7188C39 69.4883 39.2539 69.4336 39.4805 69.3242C39.707 69.2148 39.8867 69.0612 40.0195 68.8633C40.1549 68.6628 40.2227 68.4284 40.2227 68.1602C40.2227 67.819 40.1029 67.5312 39.8633 67.2969C39.6263 67.0625 39.2552 66.9453 38.75 66.9453H37.0117V69.4883ZM46.7813 71.5312V68H47.8281V74H46.793V72.9727H46.7305C46.5898 73.2852 46.3698 73.5482 46.0703 73.7617C45.7708 73.9727 45.3945 74.0781 44.9414 74.0781C44.5638 74.0781 44.2279 73.9948 43.9336 73.8281C43.6393 73.6589 43.4076 73.4076 43.2383 73.0742C43.0716 72.7383 42.9883 72.3177 42.9883 71.8125V68H44.0352V71.7109C44.0352 72.1354 44.1536 72.474 44.3906 72.7266C44.6276 72.9766 44.931 73.1016 45.3008 73.1016C45.5273 73.1016 45.7539 73.0456 45.9805 72.9336C46.207 72.819 46.3971 72.6458 46.5508 72.4141C46.7044 72.1823 46.7813 71.888 46.7813 71.5312ZM50.123 76.25C49.9564 76.25 49.8066 76.237 49.6738 76.2109C49.541 76.1849 49.446 76.1576 49.3887 76.1289L49.6465 75.2461C49.8652 75.3034 50.0592 75.3255 50.2285 75.3125C50.3978 75.3021 50.5475 75.2331 50.6777 75.1055C50.8105 74.9779 50.929 74.7721 51.0332 74.4883L51.1934 74.0547L48.9863 68H50.1113L51.6973 72.7187H51.7598L53.3496 68H54.4785L51.9668 74.8359C51.8522 75.1484 51.7077 75.4102 51.5332 75.6211C51.3613 75.832 51.1582 75.9896 50.9238 76.0938C50.6895 76.1979 50.4225 76.25 50.123 76.25ZM58.624 74V73.2109L61.2998 70.3633C61.5993 70.0404 61.8454 69.7591 62.0381 69.5195C62.2334 69.2799 62.3792 69.0521 62.4756 68.8359C62.5719 68.6198 62.6201 68.3919 62.6201 68.1523C62.6201 67.8789 62.555 67.6432 62.4248 67.4453C62.2946 67.2448 62.1175 67.0898 61.8936 66.9805C61.6696 66.8711 61.4183 66.8164 61.1396 66.8164C60.8428 66.8164 60.5837 66.8776 60.3623 67C60.1436 67.1224 59.9743 67.293 59.8545 67.5117C59.7347 67.7305 59.6748 67.9883 59.6748 68.2852H58.6396C58.6396 67.8086 58.749 67.3906 58.9678 67.0312C59.1865 66.6719 59.4873 66.3919 59.8701 66.1914C60.2529 65.9909 60.6852 65.8906 61.167 65.8906C61.654 65.8906 62.0837 65.9909 62.4561 66.1914C62.8285 66.3893 63.1201 66.6576 63.3311 66.9961C63.542 67.3346 63.6475 67.7135 63.6475 68.1328C63.6475 68.4297 63.5928 68.7201 63.4834 69.0039C63.3766 69.2852 63.1904 69.599 62.9248 69.9453C62.6592 70.2891 62.2894 70.707 61.8154 71.1992L60.124 72.9922V73.0547H63.7803V74H58.624Z" fill="#303030"/>
<path d="M118.667 68C118.648 67.7633 118.559 67.5786 118.4 67.446C118.244 67.3134 118.006 67.2472 117.686 67.2472C117.483 67.2472 117.316 67.272 117.186 67.3217C117.058 67.3691 116.963 67.4342 116.902 67.517C116.84 67.5999 116.808 67.6946 116.806 67.8011C116.801 67.8887 116.816 67.968 116.852 68.0391C116.89 68.1077 116.949 68.1705 117.029 68.2273C117.11 68.2817 117.213 68.3314 117.338 68.3764C117.464 68.4214 117.613 68.4616 117.786 68.4972L118.382 68.625C118.785 68.7102 119.129 68.8227 119.416 68.9624C119.702 69.102 119.937 69.2666 120.119 69.456C120.301 69.643 120.435 69.8537 120.52 70.0881C120.608 70.3224 120.653 70.5781 120.655 70.8551C120.653 71.3333 120.533 71.7382 120.297 72.0696C120.06 72.401 119.721 72.6532 119.281 72.826C118.843 72.9988 118.316 73.0852 117.701 73.0852C117.069 73.0852 116.517 72.9917 116.046 72.8047C115.577 72.6177 115.212 72.33 114.952 71.9418C114.694 71.5511 114.564 71.0516 114.561 70.4432H116.436C116.448 70.6657 116.504 70.8527 116.603 71.0043C116.703 71.1558 116.842 71.2706 117.022 71.3487C117.205 71.4268 117.421 71.4659 117.672 71.4659C117.883 71.4659 118.059 71.4399 118.201 71.3878C118.343 71.3357 118.451 71.2635 118.525 71.1712C118.598 71.0788 118.636 70.9735 118.638 70.8551C118.636 70.7438 118.599 70.6468 118.528 70.5639C118.459 70.4787 118.346 70.4029 118.187 70.3366C118.029 70.268 117.814 70.2041 117.544 70.1449L116.82 69.9886C116.176 69.849 115.668 69.6158 115.297 69.2891C114.927 68.96 114.744 68.5114 114.746 67.9432C114.744 67.4815 114.867 67.0779 115.115 66.7322C115.366 66.3842 115.713 66.1132 116.156 65.919C116.601 65.7249 117.111 65.6278 117.686 65.6278C118.274 65.6278 118.781 65.7261 119.21 65.9226C119.638 66.1191 119.969 66.3961 120.201 66.7536C120.435 67.1087 120.553 67.5241 120.556 68H118.667ZM123.012 73H120.882L123.282 65.7273H125.981L128.382 73H126.251L124.66 67.7301H124.603L123.012 73ZM122.615 70.1307H126.62V71.608H122.615V70.1307ZM130.016 65.7273L131.507 70.8551H131.564L133.056 65.7273H135.286L132.885 73H130.186L127.786 65.7273H130.016ZM135.986 73V65.7273H141.228V67.3182H137.961V68.5682H140.958V70.1591H137.961V71.4091H141.214V73H135.986ZM147.779 65.7273V73H145.804V67.5455H145.762L144.171 68.4972V66.821L145.961 65.7273H147.779ZM152.44 73.1989C151.779 73.1965 151.209 73.0438 150.728 72.7408C150.247 72.4377 149.877 72.0009 149.616 71.4304C149.356 70.8598 149.227 70.1757 149.229 69.3778C149.232 68.5777 149.362 67.8982 149.62 67.3395C149.88 66.7808 150.25 66.3558 150.728 66.0646C151.209 65.7734 151.779 65.6278 152.44 65.6278C153.1 65.6278 153.671 65.7746 154.151 66.0682C154.632 66.3594 155.002 66.7843 155.263 67.343C155.523 67.9018 155.652 68.58 155.65 69.3778C155.65 70.1804 155.52 70.867 155.259 71.4375C154.999 72.008 154.628 72.4448 154.148 72.7479C153.67 73.0485 153.1 73.1989 152.44 73.1989ZM152.44 71.5938C152.781 71.5938 153.06 71.4162 153.278 71.0611C153.498 70.7036 153.607 70.1425 153.604 69.3778C153.604 68.8783 153.555 68.4699 153.455 68.1527C153.356 67.8355 153.219 67.6011 153.043 67.4496C152.868 67.2957 152.667 67.2188 152.44 67.2188C152.099 67.2188 151.821 67.3916 151.605 67.7372C151.39 68.0829 151.28 68.6297 151.275 69.3778C151.272 69.8868 151.321 70.3059 151.42 70.6349C151.52 70.9616 151.657 71.2031 151.832 71.3594C152.01 71.5156 152.212 71.5938 152.44 71.5938ZM160.739 71.6364V71.2528C160.739 70.9451 160.805 70.661 160.938 70.4006C161.072 70.1402 161.268 69.9306 161.523 69.772C161.779 69.6134 162.09 69.5341 162.457 69.5341C162.834 69.5341 163.15 69.6122 163.406 69.7685C163.664 69.9247 163.859 70.133 163.991 70.3935C164.124 70.6539 164.19 70.9403 164.19 71.2528V71.6364C164.19 71.9441 164.123 72.2282 163.988 72.4886C163.855 72.7491 163.66 72.9586 163.402 73.1172C163.144 73.2758 162.829 73.3551 162.457 73.3551C162.086 73.3551 161.772 73.2758 161.516 73.1172C161.261 72.9586 161.067 72.7491 160.934 72.4886C160.804 72.2282 160.739 71.9441 160.739 71.6364ZM161.974 71.2528V71.6364C161.974 71.7713 162.008 71.9051 162.074 72.0376C162.143 72.1679 162.27 72.233 162.457 72.233C162.654 72.233 162.783 72.169 162.844 72.0412C162.908 71.9134 162.94 71.7784 162.94 71.6364V71.2528C162.94 71.1108 162.911 70.9735 162.852 70.8409C162.792 70.7083 162.661 70.642 162.457 70.642C162.27 70.642 162.143 70.7083 162.074 70.8409C162.008 70.9735 161.974 71.1108 161.974 71.2528ZM156.932 67.4744V67.0909C156.932 66.7784 156.999 66.492 157.134 66.2315C157.272 65.9711 157.468 65.7628 157.724 65.6065C157.979 65.4503 158.288 65.3722 158.651 65.3722C159.027 65.3722 159.343 65.4503 159.599 65.6065C159.857 65.7628 160.052 65.9711 160.185 66.2315C160.317 66.492 160.384 66.7784 160.384 67.0909V67.4744C160.384 67.7869 160.316 68.0722 160.181 68.3303C160.049 68.5883 159.853 68.7943 159.595 68.9482C159.337 69.102 159.022 69.179 158.651 69.179C158.279 69.179 157.965 69.1009 157.71 68.9446C157.454 68.7884 157.26 68.5812 157.127 68.3232C156.997 68.0651 156.932 67.7822 156.932 67.4744ZM158.182 67.0909V67.4744C158.182 67.6165 158.215 67.7514 158.281 67.8793C158.348 68.0071 158.471 68.071 158.651 68.071C158.847 68.071 158.976 68.0071 159.038 67.8793C159.102 67.7514 159.134 67.6165 159.134 67.4744V67.0909C159.134 66.9489 159.104 66.8116 159.045 66.679C158.986 66.5464 158.854 66.4801 158.651 66.4801C158.464 66.4801 158.338 66.5488 158.274 66.6861C158.213 66.821 158.182 66.956 158.182 67.0909ZM157.536 73L162.536 65.7273H163.544L158.544 73H157.536Z" fill="#303030"/>
<line x1="14.5488" y1="67.9327" x2="14.5" y2="76.003" stroke="#303030"/>
<line x1="14.0488" y1="68.4297" x2="11.0012" y2="68.4297" stroke="#303030"/>
<line x1="27.002" y1="68.4297" x2="23.9543" y2="68.4297" stroke="#303030"/>
<line x1="26.5" y1="65" x2="26.5" y2="68" stroke="#303030"/>
<line x1="11.5" y1="65" x2="11.5" y2="68" stroke="#303030"/>
<line x1="23.6914" y1="67.9297" x2="23.6914" y2="75.9961" stroke="#303030"/>
<line x1="23.3809" y1="75.5" x2="14.9999" y2="75.5" stroke="#303030"/>
<line x1="22" y1="65.5" x2="16" y2="65.5" stroke="#303030"/>
<line x1="17" y1="63.5" x2="11" y2="63.5" stroke="#303030"/>
<line x1="27" y1="63.5" x2="21" y2="63.5" stroke="#303030"/>
<line x1="16.5" y1="64" x2="16.5" y2="66" stroke="#303030"/>
<line x1="21.5" y1="64" x2="21.5" y2="66" stroke="#303030"/>
<line x1="26.5" y1="64" x2="26.5" y2="66" stroke="#303030"/>
<line x1="11.5" y1="64" x2="11.5" y2="66" stroke="#303030"/>
<rect y="100" width="175" height="40" rx="6" fill="#F1F1F1"/>
<path d="M117.876 118C117.857 117.763 117.768 117.579 117.609 117.446C117.453 117.313 117.215 117.247 116.895 117.247C116.692 117.247 116.525 117.272 116.395 117.322C116.267 117.369 116.172 117.434 116.111 117.517C116.049 117.6 116.017 117.695 116.015 117.801C116.01 117.889 116.025 117.968 116.061 118.039C116.099 118.108 116.158 118.17 116.238 118.227C116.319 118.282 116.422 118.331 116.547 118.376C116.673 118.421 116.822 118.462 116.995 118.497L117.591 118.625C117.994 118.71 118.338 118.823 118.625 118.962C118.911 119.102 119.146 119.267 119.328 119.456C119.51 119.643 119.644 119.854 119.729 120.088C119.817 120.322 119.862 120.578 119.864 120.855C119.862 121.333 119.742 121.738 119.506 122.07C119.269 122.401 118.93 122.653 118.49 122.826C118.052 122.999 117.525 123.085 116.91 123.085C116.278 123.085 115.726 122.992 115.255 122.805C114.786 122.618 114.421 122.33 114.161 121.942C113.903 121.551 113.773 121.052 113.77 120.443H115.645C115.657 120.666 115.713 120.853 115.812 121.004C115.912 121.156 116.051 121.271 116.231 121.349C116.414 121.427 116.63 121.466 116.881 121.466C117.092 121.466 117.268 121.44 117.41 121.388C117.552 121.336 117.66 121.263 117.733 121.171C117.807 121.079 117.845 120.973 117.847 120.855C117.845 120.744 117.808 120.647 117.737 120.564C117.668 120.479 117.555 120.403 117.396 120.337C117.238 120.268 117.023 120.204 116.753 120.145L116.029 119.989C115.385 119.849 114.877 119.616 114.506 119.289C114.136 118.96 113.953 118.511 113.955 117.943C113.953 117.482 114.076 117.078 114.324 116.732C114.575 116.384 114.922 116.113 115.365 115.919C115.81 115.725 116.32 115.628 116.895 115.628C117.483 115.628 117.99 115.726 118.419 115.923C118.847 116.119 119.178 116.396 119.41 116.754C119.644 117.109 119.762 117.524 119.765 118H117.876ZM122.221 123H120.091L122.491 115.727H125.19L127.591 123H125.46L123.869 117.73H123.812L122.221 123ZM121.824 120.131H125.829V121.608H121.824V120.131ZM129.225 115.727L130.716 120.855H130.773L132.265 115.727H134.495L132.094 123H129.395L126.995 115.727H129.225ZM135.195 123V115.727H140.437V117.318H137.17V118.568H140.167V120.159H137.17V121.409H140.423V123H135.195ZM143.422 123V121.58L146.135 119.335C146.315 119.186 146.469 119.046 146.597 118.916C146.727 118.784 146.827 118.647 146.895 118.508C146.966 118.368 147.002 118.213 147.002 118.043C147.002 117.856 146.962 117.696 146.881 117.563C146.803 117.431 146.694 117.329 146.555 117.258C146.415 117.184 146.254 117.148 146.072 117.148C145.889 117.148 145.728 117.184 145.589 117.258C145.451 117.331 145.345 117.439 145.269 117.581C145.193 117.723 145.155 117.896 145.155 118.099H143.28C143.28 117.588 143.395 117.148 143.625 116.778C143.854 116.409 144.179 116.125 144.598 115.926C145.017 115.727 145.508 115.628 146.072 115.628C146.654 115.628 147.158 115.721 147.584 115.908C148.013 116.093 148.343 116.353 148.575 116.69C148.809 117.026 148.927 117.42 148.927 117.872C148.927 118.152 148.869 118.43 148.753 118.707C148.637 118.981 148.428 119.286 148.128 119.619C147.827 119.953 147.4 120.351 146.846 120.812L146.164 121.381V121.423H149.005V123H143.422ZM152.799 123.099C152.24 123.099 151.744 123.001 151.311 122.805C150.88 122.606 150.541 122.332 150.292 121.984C150.046 121.636 149.92 121.236 149.916 120.784H151.833C151.84 121.035 151.937 121.235 152.124 121.384C152.314 121.533 152.539 121.608 152.799 121.608C153 121.608 153.178 121.565 153.332 121.48C153.486 121.393 153.606 121.269 153.694 121.111C153.782 120.952 153.824 120.768 153.822 120.557C153.824 120.344 153.782 120.159 153.694 120.003C153.606 119.844 153.486 119.722 153.332 119.637C153.178 119.549 153 119.506 152.799 119.506C152.591 119.506 152.398 119.557 152.22 119.658C152.045 119.758 151.916 119.896 151.833 120.074L150.1 119.733L150.384 115.727H155.271V117.304H152.004L151.862 118.909H151.904C152.018 118.689 152.214 118.507 152.494 118.362C152.773 118.215 153.097 118.142 153.467 118.142C153.9 118.142 154.286 118.243 154.624 118.444C154.965 118.645 155.234 118.923 155.431 119.278C155.629 119.631 155.728 120.038 155.725 120.5C155.728 121.007 155.607 121.456 155.363 121.849C155.122 122.24 154.782 122.547 154.344 122.769C153.906 122.989 153.391 123.099 152.799 123.099ZM160.739 121.636V121.253C160.739 120.945 160.805 120.661 160.938 120.401C161.072 120.14 161.268 119.931 161.523 119.772C161.779 119.613 162.09 119.534 162.457 119.534C162.834 119.534 163.15 119.612 163.406 119.768C163.664 119.925 163.859 120.133 163.991 120.393C164.124 120.654 164.19 120.94 164.19 121.253V121.636C164.19 121.944 164.123 122.228 163.988 122.489C163.855 122.749 163.66 122.959 163.402 123.117C163.144 123.276 162.829 123.355 162.457 123.355C162.086 123.355 161.772 123.276 161.516 123.117C161.261 122.959 161.067 122.749 160.934 122.489C160.804 122.228 160.739 121.944 160.739 121.636ZM161.974 121.253V121.636C161.974 121.771 162.008 121.905 162.074 122.038C162.143 122.168 162.27 122.233 162.457 122.233C162.654 122.233 162.783 122.169 162.844 122.041C162.908 121.913 162.94 121.778 162.94 121.636V121.253C162.94 121.111 162.911 120.973 162.852 120.841C162.792 120.708 162.661 120.642 162.457 120.642C162.27 120.642 162.143 120.708 162.074 120.841C162.008 120.973 161.974 121.111 161.974 121.253ZM156.932 117.474V117.091C156.932 116.778 156.999 116.492 157.134 116.232C157.272 115.971 157.468 115.763 157.724 115.607C157.979 115.45 158.288 115.372 158.651 115.372C159.027 115.372 159.343 115.45 159.599 115.607C159.857 115.763 160.052 115.971 160.185 116.232C160.317 116.492 160.384 116.778 160.384 117.091V117.474C160.384 117.787 160.316 118.072 160.181 118.33C160.049 118.588 159.853 118.794 159.595 118.948C159.337 119.102 159.022 119.179 158.651 119.179C158.279 119.179 157.965 119.101 157.71 118.945C157.454 118.788 157.26 118.581 157.127 118.323C156.997 118.065 156.932 117.782 156.932 117.474ZM158.182 117.091V117.474C158.182 117.616 158.215 117.751 158.281 117.879C158.348 118.007 158.471 118.071 158.651 118.071C158.847 118.071 158.976 118.007 159.038 117.879C159.102 117.751 159.134 117.616 159.134 117.474V117.091C159.134 116.949 159.104 116.812 159.045 116.679C158.986 116.546 158.854 116.48 158.651 116.48C158.464 116.48 158.338 116.549 158.274 116.686C158.213 116.821 158.182 116.956 158.182 117.091ZM157.536 123L162.536 115.727H163.544L158.544 123H157.536Z" fill="#303030"/>
<path d="M35.9219 124V116H38.7891C39.3516 116 39.8164 116.095 40.1836 116.285C40.5508 116.473 40.8242 116.727 41.0039 117.047C41.1836 117.365 41.2734 117.72 41.2734 118.113C41.2734 118.452 41.2122 118.734 41.0898 118.961C40.9701 119.185 40.8099 119.365 40.6094 119.5C40.4089 119.633 40.1901 119.73 39.9531 119.793V119.871C40.2083 119.887 40.4609 119.973 40.7109 120.129C40.9609 120.285 41.1693 120.509 41.3359 120.801C41.5026 121.09 41.5859 121.443 41.5859 121.859C41.5859 122.266 41.4922 122.63 41.3047 122.953C41.1198 123.273 40.8294 123.529 40.4336 123.719C40.0378 123.906 39.5273 124 38.9023 124H35.9219ZM37.0117 123.055H38.8438C39.4505 123.055 39.8828 122.937 40.1406 122.703C40.3984 122.466 40.5273 122.176 40.5273 121.832C40.5273 121.569 40.4609 121.328 40.3281 121.109C40.1953 120.888 40.0065 120.712 39.7617 120.582C39.5169 120.449 39.2266 120.383 38.8906 120.383H37.0117V123.055ZM37.0117 119.488H38.7188C39 119.488 39.2539 119.434 39.4805 119.324C39.707 119.215 39.8867 119.061 40.0195 118.863C40.1549 118.663 40.2227 118.428 40.2227 118.16C40.2227 117.819 40.1029 117.531 39.8633 117.297C39.6263 117.062 39.2552 116.945 38.75 116.945H37.0117V119.488ZM46.7813 121.531V118H47.8281V124H46.793V122.973H46.7305C46.5898 123.285 46.3698 123.548 46.0703 123.762C45.7708 123.973 45.3945 124.078 44.9414 124.078C44.5638 124.078 44.2279 123.995 43.9336 123.828C43.6393 123.659 43.4076 123.408 43.2383 123.074C43.0716 122.738 42.9883 122.318 42.9883 121.812V118H44.0352V121.711C44.0352 122.135 44.1536 122.474 44.3906 122.727C44.6276 122.977 44.931 123.102 45.3008 123.102C45.5273 123.102 45.7539 123.046 45.9805 122.934C46.207 122.819 46.3971 122.646 46.5508 122.414C46.7044 122.182 46.7813 121.888 46.7813 121.531ZM50.123 126.25C49.9564 126.25 49.8066 126.237 49.6738 126.211C49.541 126.185 49.446 126.158 49.3887 126.129L49.6465 125.246C49.8652 125.303 50.0592 125.326 50.2285 125.313C50.3978 125.302 50.5475 125.233 50.6777 125.105C50.8105 124.978 50.929 124.772 51.0332 124.488L51.1934 124.055L48.9863 118H50.1113L51.6973 122.719H51.7598L53.3496 118H54.4785L51.9668 124.836C51.8522 125.148 51.7077 125.41 51.5332 125.621C51.3613 125.832 51.1582 125.99 50.9238 126.094C50.6895 126.198 50.4225 126.25 50.123 126.25ZM61.3701 124.109C60.8441 124.109 60.3753 124.02 59.9639 123.84C59.5524 123.658 59.2269 123.405 58.9873 123.082C58.7477 122.759 58.6188 122.384 58.6006 121.957H59.7021C59.723 122.204 59.8076 122.418 59.9561 122.598C60.1071 122.777 60.3037 122.917 60.5459 123.016C60.7907 123.112 61.0615 123.16 61.3584 123.16C61.6865 123.16 61.9782 123.103 62.2334 122.988C62.4886 122.874 62.6878 122.714 62.8311 122.508C62.9769 122.302 63.0498 122.065 63.0498 121.797C63.0498 121.516 62.9782 121.268 62.835 121.055C62.6943 120.839 62.4886 120.669 62.2178 120.547C61.9469 120.424 61.6175 120.363 61.2295 120.363H60.5693V119.441H61.2295C61.5368 119.441 61.8063 119.387 62.0381 119.277C62.2725 119.165 62.4561 119.01 62.5889 118.812C62.7217 118.612 62.7881 118.376 62.7881 118.105C62.7881 117.848 62.7295 117.622 62.6123 117.43C62.4977 117.237 62.335 117.087 62.124 116.98C61.9157 116.871 61.6696 116.816 61.3857 116.816C61.1175 116.816 60.8662 116.866 60.6318 116.965C60.3975 117.061 60.2061 117.201 60.0576 117.383C59.9118 117.565 59.8324 117.784 59.8193 118.039H58.7686C58.7842 117.612 58.9118 117.238 59.1514 116.918C59.391 116.595 59.7061 116.344 60.0967 116.164C60.4899 115.982 60.9248 115.891 61.4014 115.891C61.9066 115.891 62.3402 115.991 62.7021 116.191C63.0667 116.389 63.3467 116.652 63.542 116.98C63.7399 117.309 63.8389 117.665 63.8389 118.051C63.8389 118.501 63.7178 118.884 63.4756 119.199C63.2334 119.512 62.9066 119.727 62.4951 119.844V119.906C63.0133 119.987 63.4157 120.199 63.7021 120.543C63.9912 120.884 64.1357 121.309 64.1357 121.816C64.1357 122.254 64.016 122.646 63.7764 122.992C63.5368 123.339 63.2087 123.612 62.792 123.812C62.3753 124.01 61.9014 124.109 61.3701 124.109Z" fill="#303030"/>
<line x1="14.5488" y1="117.933" x2="14.5" y2="126.003" stroke="#303030"/>
<line x1="14.0488" y1="118.43" x2="11.0012" y2="118.43" stroke="#303030"/>
<line x1="27.002" y1="118.43" x2="23.9543" y2="118.43" stroke="#303030"/>
<line x1="26.5" y1="115" x2="26.5" y2="118" stroke="#303030"/>
<line x1="11.5" y1="115" x2="11.5" y2="118" stroke="#303030"/>
<line x1="23.6914" y1="117.93" x2="23.6914" y2="125.996" stroke="#303030"/>
<line x1="23.3809" y1="125.5" x2="14.9999" y2="125.5" stroke="#303030"/>
<line x1="22" y1="115.5" x2="16" y2="115.5" stroke="#303030"/>
<line x1="17" y1="113.5" x2="11" y2="113.5" stroke="#303030"/>
<line x1="27" y1="113.5" x2="21" y2="113.5" stroke="#303030"/>
<line x1="16.5" y1="114" x2="16.5" y2="116" stroke="#303030"/>
<line x1="21.5" y1="114" x2="21.5" y2="116" stroke="#303030"/>
<line x1="26.5" y1="114" x2="26.5" y2="116" stroke="#303030"/>
<line x1="11.5" y1="114" x2="11.5" y2="116" stroke="#303030"/>
</svg>
